<svg width="1493" height="1493" viewBox="0 0 1493 1493" fill="none" xmlns="http://www.w3.org/2000/svg">
<circle cx="746.5" cy="746.5" r="746.5" fill="#FBF9FF"/>
<path d="M483.999 195.073C471.801 200.201 455.815 211.154 447.582 217.287C446.474 218.113 446.402 219.66 447.532 220.457C457.441 227.441 494.735 247.08 495.892 240.124C497.087 232.931 486.861 198.963 484.714 195.23C484.561 194.963 484.282 194.954 483.999 195.073Z" fill="#2E2630"/>
<path d="M259.163 784.422C356.278 732.255 422.002 642.722 448.846 598.007C385.007 653.052 236.011 720.644 236 722.048C238.04 747.42 252.292 774.202 259.163 784.422Z" fill="#2E2630"/>
<path d="M391.128 259.853C371.553 274.399 338.053 314.005 319.878 336.87C318.046 339.174 318.837 342.563 321.575 343.646C361.233 359.335 433.148 356.081 468.938 351.95C471.228 351.686 472.602 349.816 471.474 347.806C462.487 331.798 414.153 276.966 399.97 260.972C397.97 258.717 393.547 258.056 391.128 259.853Z" fill="#2E2630"/>
<path d="M1018.19 199.241C1031.46 204.966 1049.4 218.017 1056.71 223.827C1052.06 228.403 1007.13 251.908 1005.99 244.276C1004.85 236.644 1016.99 199.232 1018.19 199.241Z" fill="#2E2630"/>
<path d="M1233.82 792.356C1137.57 738.615 1073.31 648.024 1047.2 602.878C1110.14 658.955 1258.01 728.964 1258 730.368C1255.55 755.703 1240.86 782.25 1233.82 792.356Z" fill="#2E2630"/>
<path d="M1108.02 263.948C1127.53 277.539 1164.11 322.502 1182.14 346.147C1183.04 347.318 1182.62 349.005 1181.26 349.569C1141.23 366.169 1064.85 361.17 1029.11 356.256C1027.97 356.099 1027.22 355.17 1027.71 354.124C1034.03 340.397 1092.02 277.079 1103.55 264.508C1104.57 263.398 1106.78 263.087 1108.02 263.948Z" fill="#2E2630"/>
<path d="M488.812 567.646C420.265 732.982 276.169 814.655 276.169 814.655C351.059 929.8 483.377 1055.65 747.41 1057.8C1021.62 1060.03 1168.95 909.183 1216.73 822.111C1035 697.265 1007.93 572.273 1007.93 572.273C983.05 592.933 924.556 612.516 898.419 619.726C891.531 603.421 880.479 571.236 868.122 571.135C855.766 571.035 842.201 601.148 839.87 616.441C820.876 575.766 775.991 494.159 748.396 493.132C720.802 492.105 675.373 575.785 656.108 617.753C653.565 601.484 643.587 568.906 632.835 568.819C622.083 568.731 604.889 601.088 596.533 617.268C552.962 607.445 506.564 580.094 488.812 567.646Z" fill="#2E2630"/>
<path d="M442.322 1196.43C441.146 1192.62 439.523 1189.21 437.452 1186.2C435.429 1183.14 432.982 1180.53 430.112 1178.36C427.289 1176.2 424.043 1174.57 420.373 1173.49C416.702 1172.36 412.703 1171.8 408.374 1171.8C400.611 1171.8 393.694 1173.75 387.624 1177.66C381.555 1181.56 376.779 1187.3 373.297 1194.88C369.862 1202.4 368.145 1211.58 368.145 1222.4C368.145 1233.32 369.862 1242.56 373.297 1250.14C376.732 1257.71 381.508 1263.48 387.624 1267.43C393.741 1271.33 400.846 1273.29 408.939 1273.29C416.279 1273.29 422.631 1271.87 427.995 1269.05C433.406 1266.23 437.57 1262.23 440.487 1257.05C443.404 1251.83 444.863 1245.71 444.863 1238.7L450.792 1239.62H411.55V1219.15H470.2V1236.52C470.2 1248.89 467.565 1259.59 462.296 1268.63C457.026 1277.66 449.78 1284.63 440.558 1289.52C431.336 1294.37 420.749 1296.79 408.798 1296.79C395.482 1296.79 383.79 1293.8 373.721 1287.83C363.699 1281.8 355.864 1273.26 350.218 1262.21C344.619 1251.1 341.819 1237.93 341.819 1222.68C341.819 1211.01 343.466 1200.59 346.76 1191.42C350.101 1182.24 354.759 1174.46 360.734 1168.06C366.71 1161.61 373.721 1156.72 381.766 1153.38C389.812 1149.99 398.564 1148.3 408.021 1148.3C416.02 1148.3 423.478 1149.47 430.395 1151.83C437.311 1154.13 443.451 1157.42 448.815 1161.71C454.226 1165.99 458.673 1171.07 462.155 1176.95C465.636 1182.83 467.918 1189.32 469.001 1196.43H442.322Z" fill="#2E2630"/>
<path d="M509.618 1294.81H481.669L532.556 1150.27H564.88L615.838 1294.81H587.889L549.283 1179.91H548.154L509.618 1294.81ZM510.536 1238.14H586.76V1259.17H510.536V1238.14Z" fill="#2E2630"/>
<path d="M634.876 1294.81V1150.27H689.08C700.184 1150.27 709.5 1152.2 717.028 1156.06C724.604 1159.92 730.321 1165.33 734.179 1172.29C738.084 1179.21 740.037 1187.28 740.037 1196.5C740.037 1205.77 738.061 1213.81 734.108 1220.64C730.203 1227.41 724.439 1232.66 716.817 1236.38C709.194 1240.05 699.831 1241.88 688.727 1241.88H650.121V1220.14H685.198C691.691 1220.14 697.008 1219.25 701.148 1217.46C705.289 1215.63 708.347 1212.97 710.324 1209.49C712.347 1205.96 713.358 1201.63 713.358 1196.5C713.358 1191.37 712.347 1187 710.324 1183.37C708.3 1179.7 705.218 1176.93 701.078 1175.04C696.937 1173.12 691.597 1172.15 685.057 1172.15H661.06V1294.81H634.876ZM709.547 1229.32L745.33 1294.81H716.111L680.963 1229.32H709.547Z" fill="#2E2630"/>
<path d="M764.139 1294.81V1150.27H818.343C829.447 1150.27 838.763 1152.2 846.292 1156.06C853.867 1159.92 859.584 1165.33 863.442 1172.29C867.347 1179.21 869.3 1187.28 869.3 1196.5C869.3 1205.77 867.324 1213.81 863.371 1220.64C859.466 1227.41 853.702 1232.66 846.08 1236.38C838.457 1240.05 829.094 1241.88 817.99 1241.88H779.384V1220.14H814.461C820.954 1220.14 826.271 1219.25 830.412 1217.46C834.552 1215.63 837.611 1212.97 839.587 1209.49C841.61 1205.96 842.622 1201.63 842.622 1196.5C842.622 1191.37 841.61 1187 839.587 1183.37C837.563 1179.7 834.482 1176.93 830.341 1175.04C826.2 1173.12 820.86 1172.15 814.32 1172.15H790.323V1294.81H764.139ZM838.81 1229.32L874.593 1294.81H845.374L810.226 1229.32H838.81Z" fill="#2E2630"/>
<path d="M984.518 1150.27H1010.7V1244.7C1010.7 1255.05 1008.26 1264.16 1003.36 1272.02C998.516 1279.87 991.694 1286.01 982.895 1290.44C974.096 1294.81 963.815 1297 952.052 1297C940.242 1297 929.938 1294.81 921.139 1290.44C912.341 1286.01 905.518 1279.87 900.672 1272.02C895.825 1264.16 893.402 1255.05 893.402 1244.7V1150.27H919.587V1242.52C919.587 1248.54 920.904 1253.9 923.539 1258.61C926.221 1263.31 929.985 1267.01 934.831 1269.69C939.678 1272.32 945.418 1273.64 952.052 1273.64C958.687 1273.64 964.427 1272.32 969.273 1269.69C974.167 1267.01 977.931 1263.31 980.566 1258.61C983.201 1253.9 984.518 1248.54 984.518 1242.52V1150.27Z" fill="#2E2630"/>
<path d="M1061.04 1150.27L1092.87 1203.2H1094L1125.97 1150.27H1155.83L1111.29 1222.54L1156.53 1294.81H1126.19L1094 1242.23H1092.87L1060.69 1294.81H1030.48L1076.15 1222.54L1031.05 1150.27H1061.04Z" fill="#2E2630"/>
</svg>
