<svg width="556" height="703" viewBox="0 0 556 703" fill="none" xmlns="http://www.w3.org/2000/svg">
<rect width="556" height="703" fill="#F5F5F5"/>
<g id="Clock" clip-path="url(#clip0_0_1)">
<rect id="Rectangle 1" width="556" height="703" fill="#202130"/>
<g id="Analogic clock">
<g id="Clock_2">
<circle id="circle" cx="281" cy="327" r="123" fill="#202130" stroke="white" stroke-width="8"/>
</g>
<g id="hand hour">
<rect id="lineHour" x="276" y="332" width="60" height="10" rx="5" transform="rotate(-90 276 332)" fill="#383946"/>
</g>
<g id="hand minute">
<rect id="lineMinutes" x="276" y="332" width="81" height="10" rx="5" transform="rotate(-90 276 332)" fill="#5B5C64"/>
</g>
<g id="second hand">
<rect id="lineSeconds" x="276" y="332" width="110" height="10" rx="5" transform="rotate(-90 276 332)" fill="#42434E"/>
</g>
</g>
<g id="moon">
<path id="MoonPath" d="M132.991 78.0063C134.817 76.4097 133.729 73.5059 131.311 73.6985C123.398 74.3287 115.65 76.4157 108.463 79.8744C99.221 84.3217 91.1731 90.9087 84.9867 99.0888C78.8004 107.269 74.6538 116.806 72.8912 126.91C71.1286 137.013 71.8007 147.391 74.8518 157.183C77.9028 166.975 83.2449 175.898 90.4347 183.212C97.6245 190.525 106.455 196.019 116.193 199.237C125.931 202.456 136.296 203.305 146.428 201.716C154.77 200.407 162.755 197.476 169.94 193.108C171.363 192.243 170.693 190.184 169.028 190.223V190.223C111.815 191.54 84.2495 120.616 127.335 82.9509L132.991 78.0063Z" fill="white"/>
</g>
<g id="stars">
<path id="Star 1" d="M204 154L205.572 158.837H210.657L206.543 161.826L208.114 166.663L204 163.674L199.886 166.663L201.457 161.826L197.343 158.837H202.428L204 154Z" fill="white"/>
<path id="Star 2" d="M61 440L62.5716 444.837H67.6574L63.5429 447.826L65.1145 452.663L61 449.674L56.8855 452.663L58.4571 447.826L54.3426 444.837H59.4284L61 440Z" fill="white"/>
<path id="Star 3" d="M170 123L171.572 127.837H176.657L172.543 130.826L174.114 135.663L170 132.674L165.886 135.663L167.457 130.826L163.343 127.837H168.428L170 123Z" fill="white"/>
<path id="Star 4" d="M102 394L103.572 398.837H108.657L104.543 401.826L106.114 406.663L102 403.674L97.8855 406.663L99.4571 401.826L95.3426 398.837H100.428L102 394Z" fill="white"/>
<path id="Star 5" d="M228 79L229.572 83.8369H234.657L230.543 86.8262L232.114 91.6631L228 88.6738L223.886 91.6631L225.457 86.8262L221.343 83.8369H226.428L228 79Z" fill="white"/>
<path id="Star 6" d="M453 356L454.572 360.837H459.657L455.543 363.826L457.114 368.663L453 365.674L448.886 368.663L450.457 363.826L446.343 360.837H451.428L453 356Z" fill="white"/>
<path id="Star 14" d="M482.5 200L483.286 202.418H485.829L483.771 203.913L484.557 206.332L482.5 204.837L480.443 206.332L481.229 203.913L479.171 202.418H481.714L482.5 200Z" fill="white"/>
<path id="Star 19" d="M350.5 130L351.286 132.418H353.829L351.771 133.913L352.557 136.332L350.5 134.837L348.443 136.332L349.229 133.913L347.171 132.418H349.714L350.5 130Z" fill="white"/>
<path id="Star 22" d="M460.5 93L461.286 95.4184H463.829L461.771 96.9131L462.557 99.3316L460.5 97.8369L458.443 99.3316L459.229 96.9131L457.171 95.4184H459.714L460.5 93Z" fill="white"/>
<path id="Star 25" d="M428.5 161L429.286 163.418H431.829L429.771 164.913L430.557 167.332L428.5 165.837L426.443 167.332L427.229 164.913L425.171 163.418H427.714L428.5 161Z" fill="white"/>
<path id="Star 28" d="M483.5 141L484.286 143.418H486.829L484.771 144.913L485.557 147.332L483.5 145.837L481.443 147.332L482.229 144.913L480.171 143.418H482.714L483.5 141Z" fill="white"/>
<path id="Star 31" d="M383.5 73L384.286 75.4184H386.829L384.771 76.9131L385.557 79.3316L383.5 77.8369L381.443 79.3316L382.229 76.9131L380.171 75.4184H382.714L383.5 73Z" fill="white"/>
<path id="Star 34" d="M190.5 447L191.286 449.418H193.829L191.771 450.913L192.557 453.332L190.5 451.837L188.443 453.332L189.229 450.913L187.171 449.418H189.714L190.5 447Z" fill="white"/>
<path id="Star 37" d="M61.5 251L62.2858 253.418H64.8287L62.7714 254.913L63.5572 257.332L61.5 255.837L59.4428 257.332L60.2286 254.913L58.1713 253.418H60.7142L61.5 251Z" fill="white"/>
<path id="Star 11" d="M419 387L420.572 391.837H425.657L421.543 394.826L423.114 399.663L419 396.674L414.886 399.663L416.457 394.826L412.343 391.837H417.428L419 387Z" fill="white"/>
<path id="Star 15" d="M465.5 216L466.286 218.418H468.829L466.771 219.913L467.557 222.332L465.5 220.837L463.443 222.332L464.229 219.913L462.171 218.418H464.714L465.5 216Z" fill="white"/>
<path id="Star 20" d="M333.5 146L334.286 148.418H336.829L334.771 149.913L335.557 152.332L333.5 150.837L331.443 152.332L332.229 149.913L330.171 148.418H332.714L333.5 146Z" fill="white"/>
<path id="Star 23" d="M443.5 109L444.286 111.418H446.829L444.771 112.913L445.557 115.332L443.5 113.837L441.443 115.332L442.229 112.913L440.171 111.418H442.714L443.5 109Z" fill="white"/>
<path id="Star 26" d="M411.5 177L412.286 179.418H414.829L412.771 180.913L413.557 183.332L411.5 181.837L409.443 183.332L410.229 180.913L408.171 179.418H410.714L411.5 177Z" fill="white"/>
<path id="Star 29" d="M466.5 157L467.286 159.418H469.829L467.771 160.913L468.557 163.332L466.5 161.837L464.443 163.332L465.229 160.913L463.171 159.418H465.714L466.5 157Z" fill="white"/>
<path id="Star 32" d="M366.5 89L367.286 91.4184H369.829L367.771 92.9131L368.557 95.3316L366.5 93.8369L364.443 95.3316L365.229 92.9131L363.171 91.4184H365.714L366.5 89Z" fill="white"/>
<path id="Star 35" d="M173.5 463L174.286 465.418H176.829L174.771 466.913L175.557 469.332L173.5 467.837L171.443 469.332L172.229 466.913L170.171 465.418H172.714L173.5 463Z" fill="white"/>
<path id="Star 38" d="M44.5 267L45.2858 269.418H47.8287L45.7714 270.913L46.5572 273.332L44.5 271.837L42.4428 273.332L43.2286 270.913L41.1713 269.418H43.7142L44.5 267Z" fill="white"/>
<path id="Star 7" d="M116 420L117.572 424.837H122.657L118.543 427.826L120.114 432.663L116 429.674L111.886 432.663L113.457 427.826L109.343 424.837H114.428L116 420Z" fill="white"/>
<path id="Star 8" d="M158 408L159.572 412.837H164.657L160.543 415.826L162.114 420.663L158 417.674L153.886 420.663L155.457 415.826L151.343 412.837H156.428L158 408Z" fill="white"/>
<path id="Star 9" d="M486 387L487.572 391.837H492.657L488.543 394.826L490.114 399.663L486 396.674L481.886 399.663L483.457 394.826L479.343 391.837H484.428L486 387Z" fill="white"/>
<path id="Star 16" d="M498.5 216L499.286 218.418H501.829L499.771 219.913L500.557 222.332L498.5 220.837L496.443 222.332L497.229 219.913L495.171 218.418H497.714L498.5 216Z" fill="white"/>
<path id="Star 21" d="M366.5 146L367.286 148.418H369.829L367.771 149.913L368.557 152.332L366.5 150.837L364.443 152.332L365.229 149.913L363.171 148.418H365.714L366.5 146Z" fill="white"/>
<path id="Star 24" d="M476.5 109L477.286 111.418H479.829L477.771 112.913L478.557 115.332L476.5 113.837L474.443 115.332L475.229 112.913L473.171 111.418H475.714L476.5 109Z" fill="white"/>
<path id="Star 27" d="M444.5 177L445.286 179.418H447.829L445.771 180.913L446.557 183.332L444.5 181.837L442.443 183.332L443.229 180.913L441.171 179.418H443.714L444.5 177Z" fill="white"/>
<path id="Star 30" d="M499.5 157L500.286 159.418H502.829L500.771 160.913L501.557 163.332L499.5 161.837L497.443 163.332L498.229 160.913L496.171 159.418H498.714L499.5 157Z" fill="white"/>
<path id="Star 33" d="M399.5 89L400.286 91.4184H402.829L400.771 92.9131L401.557 95.3316L399.5 93.8369L397.443 95.3316L398.229 92.9131L396.171 91.4184H398.714L399.5 89Z" fill="white"/>
<path id="Star 36" d="M206.5 463L207.286 465.418H209.829L207.771 466.913L208.557 469.332L206.5 467.837L204.443 469.332L205.229 466.913L203.171 465.418H205.714L206.5 463Z" fill="white"/>
<path id="Star 39" d="M77.5 267L78.2858 269.418H80.8287L78.7714 270.913L79.5572 273.332L77.5 271.837L75.4428 273.332L76.2286 270.913L74.1713 269.418H76.7142L77.5 267Z" fill="white"/>
<path id="Star 12" d="M462 422L463.572 426.837H468.657L464.543 429.826L466.114 434.663L462 431.674L457.886 434.663L459.457 429.826L455.343 426.837H460.428L462 422Z" fill="white"/>
<path id="Star 17" d="M486.5 233L487.286 235.418H489.829L487.771 236.913L488.557 239.332L486.5 237.837L484.443 239.332L485.229 236.913L483.171 235.418H485.714L486.5 233Z" fill="white"/>
<path id="Star 13" d="M419 434L420.572 438.837H425.657L421.543 441.826L423.114 446.663L419 443.674L414.886 446.663L416.457 441.826L412.343 438.837H417.428L419 434Z" fill="white"/>
<path id="Star 18" d="M465.5 239L466.286 241.418H468.829L466.771 242.913L467.557 245.332L465.5 243.837L463.443 245.332L464.229 242.913L462.171 241.418H464.714L465.5 239Z" fill="white"/>
<path id="Star 10" d="M144 295L145.572 299.837H150.657L146.543 302.826L148.114 307.663L144 304.674L139.886 307.663L141.457 302.826L137.343 299.837H142.428L144 295Z" fill="white"/>
</g>
<circle id="eje" cx="281" cy="327" r="1" fill="#42434E"/>
</g>
<defs>
<clipPath id="clip0_0_1">
<rect width="555.946" height="703" fill="white" transform="translate(0.0541077)"/>
</clipPath>
</defs>
</svg>
