<svg width="555" height="631" viewBox="0 0 555 631" fill="none" xmlns="http://www.w3.org/2000/svg">
<path d="M548.868 603.923C549.242 602.308 550.853 601.303 552.467 601.677C554.081 602.051 555.087 603.663 554.713 605.277L549.522 627.683C549.148 629.297 547.537 630.303 545.922 629.929C544.308 629.555 543.303 627.943 543.677 626.329L548.868 603.923Z" fill="#D9D9D9"/>
<path d="M518.868 603.923C519.242 602.308 520.853 601.303 522.467 601.677C524.081 602.051 525.087 603.663 524.713 605.277L519.522 627.683C519.148 629.297 517.537 630.303 515.922 629.929C514.308 629.555 513.303 627.943 513.677 626.329L518.868 603.923Z" fill="#D9D9D9"/>
<path d="M491.868 603.923C492.242 602.308 493.853 601.303 495.467 601.677C497.081 602.051 498.087 603.663 497.713 605.277L492.522 627.683C492.148 629.297 490.537 630.303 488.922 629.929C487.308 629.555 486.303 627.943 486.677 626.329L491.868 603.923Z" fill="#D9D9D9"/>
<path d="M461.868 603.923C462.242 602.308 463.853 601.303 465.467 601.677C467.081 602.051 468.087 603.663 467.713 605.277L462.522 627.683C462.148 629.297 460.537 630.303 458.922 629.929C457.308 629.555 456.303 627.943 456.677 626.329L461.868 603.923Z" fill="#D9D9D9"/>
<path d="M434.868 603.923C435.242 602.308 436.853 601.303 438.467 601.677C440.081 602.051 441.087 603.663 440.713 605.277L435.522 627.683C435.148 629.297 433.537 630.303 431.922 629.929C430.308 629.555 429.303 627.943 429.677 626.329L434.868 603.923Z" fill="#D9D9D9"/>
<path d="M404.868 603.923C405.242 602.308 406.853 601.303 408.467 601.677C410.081 602.051 411.087 603.663 410.713 605.277L405.522 627.683C405.148 629.297 403.537 630.303 401.922 629.929C400.308 629.555 399.303 627.943 399.677 626.329L404.868 603.923Z" fill="#D9D9D9"/>
<path d="M377.868 603.923C378.242 602.308 379.853 601.303 381.467 601.677C383.081 602.051 384.087 603.663 383.713 605.277L378.522 627.683C378.148 629.297 376.537 630.303 374.922 629.929C373.308 629.555 372.303 627.943 372.677 626.329L377.868 603.923Z" fill="#D9D9D9"/>
<path d="M347.868 603.923C348.242 602.308 349.853 601.303 351.467 601.677C353.081 602.051 354.087 603.663 353.713 605.277L348.522 627.683C348.148 629.297 346.537 630.303 344.922 629.929C343.308 629.555 342.303 627.943 342.677 626.329L347.868 603.923Z" fill="#D9D9D9"/>
<path d="M320.868 603.923C321.242 602.308 322.853 601.303 324.467 601.677C326.081 602.051 327.087 603.663 326.713 605.277L321.522 627.683C321.148 629.297 319.537 630.303 317.922 629.929C316.308 629.555 315.303 627.943 315.677 626.329L320.868 603.923Z" fill="#D9D9D9"/>
<path d="M290.868 603.923C291.242 602.308 292.853 601.303 294.467 601.677C296.081 602.051 297.087 603.663 296.713 605.277L291.522 627.683C291.148 629.297 289.537 630.303 287.922 629.929C286.308 629.555 285.303 627.943 285.677 626.329L290.868 603.923Z" fill="#D9D9D9"/>
<path d="M263.868 603.923C264.242 602.308 265.853 601.303 267.467 601.677C269.081 602.051 270.087 603.663 269.713 605.277L264.522 627.683C264.148 629.297 262.537 630.303 260.922 629.929C259.308 629.555 258.303 627.943 258.677 626.329L263.868 603.923Z" fill="#D9D9D9"/>
<path d="M233.868 603.923C234.242 602.308 235.853 601.303 237.467 601.677C239.081 602.051 240.087 603.663 239.713 605.277L234.522 627.683C234.148 629.297 232.537 630.303 230.922 629.929C229.308 629.555 228.303 627.943 228.677 626.329L233.868 603.923Z" fill="#D9D9D9"/>
<path d="M206.868 603.923C207.242 602.308 208.853 601.303 210.467 601.677C212.081 602.051 213.087 603.663 212.713 605.277L207.522 627.683C207.148 629.297 205.537 630.303 203.922 629.929C202.308 629.555 201.303 627.943 201.677 626.329L206.868 603.923Z" fill="#D9D9D9"/>
<path d="M176.868 603.923C177.242 602.308 178.853 601.303 180.467 601.677C182.081 602.051 183.087 603.663 182.713 605.277L177.522 627.683C177.148 629.297 175.537 630.303 173.922 629.929C172.308 629.555 171.303 627.943 171.677 626.329L176.868 603.923Z" fill="#D9D9D9"/>
<path d="M149.868 603.923C150.242 602.308 151.853 601.303 153.467 601.677C155.081 602.051 156.087 603.663 155.713 605.277L150.522 627.683C150.148 629.297 148.537 630.303 146.922 629.929C145.308 629.555 144.303 627.943 144.677 626.329L149.868 603.923Z" fill="#D9D9D9"/>
<path d="M119.868 603.923C120.242 602.308 121.853 601.303 123.467 601.677C125.081 602.051 126.087 603.663 125.713 605.277L120.522 627.683C120.148 629.297 118.537 630.303 116.922 629.929C115.308 629.555 114.303 627.943 114.677 626.329L119.868 603.923Z" fill="#D9D9D9"/>
<path d="M92.8676 603.923C93.2416 602.308 94.8532 601.303 96.4673 601.677C98.0814 602.051 99.0868 603.663 98.7128 605.277L93.5221 627.683C93.1482 629.297 91.5365 630.303 89.9224 629.929C88.3083 629.555 87.303 627.943 87.6769 626.329L92.8676 603.923Z" fill="#D9D9D9"/>
<path d="M62.8677 603.923C63.2416 602.308 64.8532 601.303 66.4673 601.677C68.0815 602.051 69.0868 603.663 68.7129 605.277L63.5221 627.683C63.1482 629.297 61.5366 630.303 59.9225 629.929C58.3084 629.555 57.303 627.943 57.6769 626.329L62.8677 603.923Z" fill="#D9D9D9"/>
<path d="M35.8676 603.923C36.2416 602.308 37.8532 601.303 39.4673 601.677C41.0814 602.051 42.0868 603.663 41.7128 605.277L36.5221 627.683C36.1482 629.297 34.5365 630.303 32.9224 629.929C31.3083 629.555 30.303 627.943 30.6769 626.329L35.8676 603.923Z" fill="#D9D9D9"/>
<path d="M5.86769 603.923C6.24162 602.308 7.85324 601.303 9.46735 601.677C11.0815 602.051 12.0868 603.663 11.7129 605.277L6.52215 627.683C6.14822 629.297 4.5366 630.303 2.92249 629.929C1.30838 629.555 0.303016 627.943 0.676943 626.329L5.86769 603.923Z" fill="#D9D9D9"/>
<path d="M548.868 560.923C549.242 559.308 550.853 558.303 552.467 558.677C554.081 559.051 555.087 560.663 554.713 562.277L549.522 584.683C549.148 586.297 547.537 587.303 545.922 586.929C544.308 586.555 543.303 584.943 543.677 583.329L548.868 560.923Z" fill="#D9D9D9"/>
<path d="M518.868 560.923C519.242 559.308 520.853 558.303 522.467 558.677C524.081 559.051 525.087 560.663 524.713 562.277L519.522 584.683C519.148 586.297 517.537 587.303 515.922 586.929C514.308 586.555 513.303 584.943 513.677 583.329L518.868 560.923Z" fill="#D9D9D9"/>
<path d="M491.868 560.923C492.242 559.308 493.853 558.303 495.467 558.677C497.081 559.051 498.087 560.663 497.713 562.277L492.522 584.683C492.148 586.297 490.537 587.303 488.922 586.929C487.308 586.555 486.303 584.943 486.677 583.329L491.868 560.923Z" fill="#D9D9D9"/>
<path d="M461.868 560.923C462.242 559.308 463.853 558.303 465.467 558.677C467.081 559.051 468.087 560.663 467.713 562.277L462.522 584.683C462.148 586.297 460.537 587.303 458.922 586.929C457.308 586.555 456.303 584.943 456.677 583.329L461.868 560.923Z" fill="#D9D9D9"/>
<path d="M434.868 560.923C435.242 559.308 436.853 558.303 438.467 558.677C440.081 559.051 441.087 560.663 440.713 562.277L435.522 584.683C435.148 586.297 433.537 587.303 431.922 586.929C430.308 586.555 429.303 584.943 429.677 583.329L434.868 560.923Z" fill="#D9D9D9"/>
<path d="M404.868 560.923C405.242 559.308 406.853 558.303 408.467 558.677C410.081 559.051 411.087 560.663 410.713 562.277L405.522 584.683C405.148 586.297 403.537 587.303 401.922 586.929C400.308 586.555 399.303 584.943 399.677 583.329L404.868 560.923Z" fill="#D9D9D9"/>
<path d="M377.868 560.923C378.242 559.308 379.853 558.303 381.467 558.677C383.081 559.051 384.087 560.663 383.713 562.277L378.522 584.683C378.148 586.297 376.537 587.303 374.922 586.929C373.308 586.555 372.303 584.943 372.677 583.329L377.868 560.923Z" fill="#D9D9D9"/>
<path d="M347.868 560.923C348.242 559.308 349.853 558.303 351.467 558.677C353.081 559.051 354.087 560.663 353.713 562.277L348.522 584.683C348.148 586.297 346.537 587.303 344.922 586.929C343.308 586.555 342.303 584.943 342.677 583.329L347.868 560.923Z" fill="#D9D9D9"/>
<path d="M320.868 560.923C321.242 559.308 322.853 558.303 324.467 558.677C326.081 559.051 327.087 560.663 326.713 562.277L321.522 584.683C321.148 586.297 319.537 587.303 317.922 586.929C316.308 586.555 315.303 584.943 315.677 583.329L320.868 560.923Z" fill="#D9D9D9"/>
<path d="M290.868 560.923C291.242 559.308 292.853 558.303 294.467 558.677C296.081 559.051 297.087 560.663 296.713 562.277L291.522 584.683C291.148 586.297 289.537 587.303 287.922 586.929C286.308 586.555 285.303 584.943 285.677 583.329L290.868 560.923Z" fill="#D9D9D9"/>
<path d="M263.868 560.923C264.242 559.308 265.853 558.303 267.467 558.677C269.081 559.051 270.087 560.663 269.713 562.277L264.522 584.683C264.148 586.297 262.537 587.303 260.922 586.929C259.308 586.555 258.303 584.943 258.677 583.329L263.868 560.923Z" fill="#D9D9D9"/>
<path d="M233.868 560.923C234.242 559.308 235.853 558.303 237.467 558.677C239.081 559.051 240.087 560.663 239.713 562.277L234.522 584.683C234.148 586.297 232.537 587.303 230.922 586.929C229.308 586.555 228.303 584.943 228.677 583.329L233.868 560.923Z" fill="#D9D9D9"/>
<path d="M206.868 560.923C207.242 559.308 208.853 558.303 210.467 558.677C212.081 559.051 213.087 560.663 212.713 562.277L207.522 584.683C207.148 586.297 205.537 587.303 203.922 586.929C202.308 586.555 201.303 584.943 201.677 583.329L206.868 560.923Z" fill="#D9D9D9"/>
<path d="M176.868 560.923C177.242 559.308 178.853 558.303 180.467 558.677C182.081 559.051 183.087 560.663 182.713 562.277L177.522 584.683C177.148 586.297 175.537 587.303 173.922 586.929C172.308 586.555 171.303 584.943 171.677 583.329L176.868 560.923Z" fill="#D9D9D9"/>
<path d="M149.868 560.923C150.242 559.308 151.853 558.303 153.467 558.677C155.081 559.051 156.087 560.663 155.713 562.277L150.522 584.683C150.148 586.297 148.537 587.303 146.922 586.929C145.308 586.555 144.303 584.943 144.677 583.329L149.868 560.923Z" fill="#D9D9D9"/>
<path d="M119.868 560.923C120.242 559.308 121.853 558.303 123.467 558.677C125.081 559.051 126.087 560.663 125.713 562.277L120.522 584.683C120.148 586.297 118.537 587.303 116.922 586.929C115.308 586.555 114.303 584.943 114.677 583.329L119.868 560.923Z" fill="#D9D9D9"/>
<path d="M92.8676 560.923C93.2416 559.308 94.8532 558.303 96.4673 558.677C98.0814 559.051 99.0868 560.663 98.7128 562.277L93.5221 584.683C93.1482 586.297 91.5365 587.303 89.9224 586.929C88.3083 586.555 87.303 584.943 87.6769 583.329L92.8676 560.923Z" fill="#D9D9D9"/>
<path d="M62.8677 560.923C63.2416 559.308 64.8532 558.303 66.4673 558.677C68.0815 559.051 69.0868 560.663 68.7129 562.277L63.5221 584.683C63.1482 586.297 61.5366 587.303 59.9225 586.929C58.3084 586.555 57.303 584.943 57.6769 583.329L62.8677 560.923Z" fill="#D9D9D9"/>
<path d="M35.8676 560.923C36.2416 559.308 37.8532 558.303 39.4673 558.677C41.0814 559.051 42.0868 560.663 41.7128 562.277L36.5221 584.683C36.1482 586.297 34.5365 587.303 32.9224 586.929C31.3083 586.555 30.303 584.943 30.6769 583.329L35.8676 560.923Z" fill="#D9D9D9"/>
<path d="M5.86769 560.923C6.24162 559.308 7.85324 558.303 9.46735 558.677C11.0815 559.051 12.0868 560.663 11.7129 562.277L6.52215 584.683C6.14822 586.297 4.5366 587.303 2.92249 586.929C1.30838 586.555 0.303016 584.943 0.676943 583.329L5.86769 560.923Z" fill="#D9D9D9"/>
<path d="M548.868 517.923C549.242 516.308 550.853 515.303 552.467 515.677C554.081 516.051 555.087 517.663 554.713 519.277L549.522 541.683C549.148 543.297 547.537 544.303 545.922 543.929C544.308 543.555 543.303 541.943 543.677 540.329L548.868 517.923Z" fill="#D9D9D9"/>
<path d="M518.868 517.923C519.242 516.308 520.853 515.303 522.467 515.677C524.081 516.051 525.087 517.663 524.713 519.277L519.522 541.683C519.148 543.297 517.537 544.303 515.922 543.929C514.308 543.555 513.303 541.943 513.677 540.329L518.868 517.923Z" fill="#D9D9D9"/>
<path d="M491.868 517.923C492.242 516.308 493.853 515.303 495.467 515.677C497.081 516.051 498.087 517.663 497.713 519.277L492.522 541.683C492.148 543.297 490.537 544.303 488.922 543.929C487.308 543.555 486.303 541.943 486.677 540.329L491.868 517.923Z" fill="#D9D9D9"/>
<path d="M461.868 517.923C462.242 516.308 463.853 515.303 465.467 515.677C467.081 516.051 468.087 517.663 467.713 519.277L462.522 541.683C462.148 543.297 460.537 544.303 458.922 543.929C457.308 543.555 456.303 541.943 456.677 540.329L461.868 517.923Z" fill="#D9D9D9"/>
<path d="M434.868 517.923C435.242 516.308 436.853 515.303 438.467 515.677C440.081 516.051 441.087 517.663 440.713 519.277L435.522 541.683C435.148 543.297 433.537 544.303 431.922 543.929C430.308 543.555 429.303 541.943 429.677 540.329L434.868 517.923Z" fill="#D9D9D9"/>
<path d="M404.868 517.923C405.242 516.308 406.853 515.303 408.467 515.677C410.081 516.051 411.087 517.663 410.713 519.277L405.522 541.683C405.148 543.297 403.537 544.303 401.922 543.929C400.308 543.555 399.303 541.943 399.677 540.329L404.868 517.923Z" fill="#D9D9D9"/>
<path d="M377.868 517.923C378.242 516.308 379.853 515.303 381.467 515.677C383.081 516.051 384.087 517.663 383.713 519.277L378.522 541.683C378.148 543.297 376.537 544.303 374.922 543.929C373.308 543.555 372.303 541.943 372.677 540.329L377.868 517.923Z" fill="#D9D9D9"/>
<path d="M347.868 517.923C348.242 516.308 349.853 515.303 351.467 515.677C353.081 516.051 354.087 517.663 353.713 519.277L348.522 541.683C348.148 543.297 346.537 544.303 344.922 543.929C343.308 543.555 342.303 541.943 342.677 540.329L347.868 517.923Z" fill="#D9D9D9"/>
<path d="M320.868 517.923C321.242 516.308 322.853 515.303 324.467 515.677C326.081 516.051 327.087 517.663 326.713 519.277L321.522 541.683C321.148 543.297 319.537 544.303 317.922 543.929C316.308 543.555 315.303 541.943 315.677 540.329L320.868 517.923Z" fill="#D9D9D9"/>
<path d="M290.868 517.923C291.242 516.308 292.853 515.303 294.467 515.677C296.081 516.051 297.087 517.663 296.713 519.277L291.522 541.683C291.148 543.297 289.537 544.303 287.922 543.929C286.308 543.555 285.303 541.943 285.677 540.329L290.868 517.923Z" fill="#D9D9D9"/>
<path d="M263.868 517.923C264.242 516.308 265.853 515.303 267.467 515.677C269.081 516.051 270.087 517.663 269.713 519.277L264.522 541.683C264.148 543.297 262.537 544.303 260.922 543.929C259.308 543.555 258.303 541.943 258.677 540.329L263.868 517.923Z" fill="#D9D9D9"/>
<path d="M233.868 517.923C234.242 516.308 235.853 515.303 237.467 515.677C239.081 516.051 240.087 517.663 239.713 519.277L234.522 541.683C234.148 543.297 232.537 544.303 230.922 543.929C229.308 543.555 228.303 541.943 228.677 540.329L233.868 517.923Z" fill="#D9D9D9"/>
<path d="M206.868 517.923C207.242 516.308 208.853 515.303 210.467 515.677C212.081 516.051 213.087 517.663 212.713 519.277L207.522 541.683C207.148 543.297 205.537 544.303 203.922 543.929C202.308 543.555 201.303 541.943 201.677 540.329L206.868 517.923Z" fill="#D9D9D9"/>
<path d="M176.868 517.923C177.242 516.308 178.853 515.303 180.467 515.677C182.081 516.051 183.087 517.663 182.713 519.277L177.522 541.683C177.148 543.297 175.537 544.303 173.922 543.929C172.308 543.555 171.303 541.943 171.677 540.329L176.868 517.923Z" fill="#D9D9D9"/>
<path d="M149.868 517.923C150.242 516.308 151.853 515.303 153.467 515.677C155.081 516.051 156.087 517.663 155.713 519.277L150.522 541.683C150.148 543.297 148.537 544.303 146.922 543.929C145.308 543.555 144.303 541.943 144.677 540.329L149.868 517.923Z" fill="#D9D9D9"/>
<path d="M119.868 517.923C120.242 516.308 121.853 515.303 123.467 515.677C125.081 516.051 126.087 517.663 125.713 519.277L120.522 541.683C120.148 543.297 118.537 544.303 116.922 543.929C115.308 543.555 114.303 541.943 114.677 540.329L119.868 517.923Z" fill="#D9D9D9"/>
<path d="M92.8676 517.923C93.2416 516.308 94.8532 515.303 96.4673 515.677C98.0814 516.051 99.0868 517.663 98.7128 519.277L93.5221 541.683C93.1482 543.297 91.5365 544.303 89.9224 543.929C88.3083 543.555 87.303 541.943 87.6769 540.329L92.8676 517.923Z" fill="#D9D9D9"/>
<path d="M62.8677 517.923C63.2416 516.308 64.8532 515.303 66.4673 515.677C68.0815 516.051 69.0868 517.663 68.7129 519.277L63.5221 541.683C63.1482 543.297 61.5366 544.303 59.9225 543.929C58.3084 543.555 57.303 541.943 57.6769 540.329L62.8677 517.923Z" fill="#D9D9D9"/>
<path d="M35.8676 517.923C36.2416 516.308 37.8532 515.303 39.4673 515.677C41.0814 516.051 42.0868 517.663 41.7128 519.277L36.5221 541.683C36.1482 543.297 34.5365 544.303 32.9224 543.929C31.3083 543.555 30.303 541.943 30.6769 540.329L35.8676 517.923Z" fill="#D9D9D9"/>
<path d="M5.86769 517.923C6.24162 516.308 7.85324 515.303 9.46735 515.677C11.0815 516.051 12.0868 517.663 11.7129 519.277L6.52215 541.683C6.14822 543.297 4.5366 544.303 2.92249 543.929C1.30838 543.555 0.303016 541.943 0.676943 540.329L5.86769 517.923Z" fill="#D9D9D9"/>
<path d="M548.868 474.923C549.242 473.308 550.853 472.303 552.467 472.677C554.081 473.051 555.087 474.663 554.713 476.277L549.522 498.683C549.148 500.297 547.537 501.303 545.922 500.929C544.308 500.555 543.303 498.943 543.677 497.329L548.868 474.923Z" fill="#D9D9D9"/>
<path d="M518.868 474.923C519.242 473.308 520.853 472.303 522.467 472.677C524.081 473.051 525.087 474.663 524.713 476.277L519.522 498.683C519.148 500.297 517.537 501.303 515.922 500.929C514.308 500.555 513.303 498.943 513.677 497.329L518.868 474.923Z" fill="#D9D9D9"/>
<path d="M491.868 474.923C492.242 473.308 493.853 472.303 495.467 472.677C497.081 473.051 498.087 474.663 497.713 476.277L492.522 498.683C492.148 500.297 490.537 501.303 488.922 500.929C487.308 500.555 486.303 498.943 486.677 497.329L491.868 474.923Z" fill="#D9D9D9"/>
<path d="M461.868 474.923C462.242 473.308 463.853 472.303 465.467 472.677C467.081 473.051 468.087 474.663 467.713 476.277L462.522 498.683C462.148 500.297 460.537 501.303 458.922 500.929C457.308 500.555 456.303 498.943 456.677 497.329L461.868 474.923Z" fill="#D9D9D9"/>
<path d="M434.868 474.923C435.242 473.308 436.853 472.303 438.467 472.677C440.081 473.051 441.087 474.663 440.713 476.277L435.522 498.683C435.148 500.297 433.537 501.303 431.922 500.929C430.308 500.555 429.303 498.943 429.677 497.329L434.868 474.923Z" fill="#D9D9D9"/>
<path d="M404.868 474.923C405.242 473.308 406.853 472.303 408.467 472.677C410.081 473.051 411.087 474.663 410.713 476.277L405.522 498.683C405.148 500.297 403.537 501.303 401.922 500.929C400.308 500.555 399.303 498.943 399.677 497.329L404.868 474.923Z" fill="#D9D9D9"/>
<path d="M377.868 474.923C378.242 473.308 379.853 472.303 381.467 472.677C383.081 473.051 384.087 474.663 383.713 476.277L378.522 498.683C378.148 500.297 376.537 501.303 374.922 500.929C373.308 500.555 372.303 498.943 372.677 497.329L377.868 474.923Z" fill="#D9D9D9"/>
<path d="M347.868 474.923C348.242 473.308 349.853 472.303 351.467 472.677C353.081 473.051 354.087 474.663 353.713 476.277L348.522 498.683C348.148 500.297 346.537 501.303 344.922 500.929C343.308 500.555 342.303 498.943 342.677 497.329L347.868 474.923Z" fill="#D9D9D9"/>
<path d="M320.868 474.923C321.242 473.308 322.853 472.303 324.467 472.677C326.081 473.051 327.087 474.663 326.713 476.277L321.522 498.683C321.148 500.297 319.537 501.303 317.922 500.929C316.308 500.555 315.303 498.943 315.677 497.329L320.868 474.923Z" fill="#D9D9D9"/>
<path d="M290.868 474.923C291.242 473.308 292.853 472.303 294.467 472.677C296.081 473.051 297.087 474.663 296.713 476.277L291.522 498.683C291.148 500.297 289.537 501.303 287.922 500.929C286.308 500.555 285.303 498.943 285.677 497.329L290.868 474.923Z" fill="#D9D9D9"/>
<path d="M263.868 474.923C264.242 473.308 265.853 472.303 267.467 472.677C269.081 473.051 270.087 474.663 269.713 476.277L264.522 498.683C264.148 500.297 262.537 501.303 260.922 500.929C259.308 500.555 258.303 498.943 258.677 497.329L263.868 474.923Z" fill="#D9D9D9"/>
<path d="M233.868 474.923C234.242 473.308 235.853 472.303 237.467 472.677C239.081 473.051 240.087 474.663 239.713 476.277L234.522 498.683C234.148 500.297 232.537 501.303 230.922 500.929C229.308 500.555 228.303 498.943 228.677 497.329L233.868 474.923Z" fill="#D9D9D9"/>
<path d="M206.868 474.923C207.242 473.308 208.853 472.303 210.467 472.677C212.081 473.051 213.087 474.663 212.713 476.277L207.522 498.683C207.148 500.297 205.537 501.303 203.922 500.929C202.308 500.555 201.303 498.943 201.677 497.329L206.868 474.923Z" fill="#D9D9D9"/>
<path d="M176.868 474.923C177.242 473.308 178.853 472.303 180.467 472.677C182.081 473.051 183.087 474.663 182.713 476.277L177.522 498.683C177.148 500.297 175.537 501.303 173.922 500.929C172.308 500.555 171.303 498.943 171.677 497.329L176.868 474.923Z" fill="#D9D9D9"/>
<path d="M149.868 474.923C150.242 473.308 151.853 472.303 153.467 472.677C155.081 473.051 156.087 474.663 155.713 476.277L150.522 498.683C150.148 500.297 148.537 501.303 146.922 500.929C145.308 500.555 144.303 498.943 144.677 497.329L149.868 474.923Z" fill="#D9D9D9"/>
<path d="M119.868 474.923C120.242 473.308 121.853 472.303 123.467 472.677C125.081 473.051 126.087 474.663 125.713 476.277L120.522 498.683C120.148 500.297 118.537 501.303 116.922 500.929C115.308 500.555 114.303 498.943 114.677 497.329L119.868 474.923Z" fill="#D9D9D9"/>
<path d="M92.8676 474.923C93.2416 473.308 94.8532 472.303 96.4673 472.677C98.0814 473.051 99.0868 474.663 98.7128 476.277L93.5221 498.683C93.1482 500.297 91.5365 501.303 89.9224 500.929C88.3083 500.555 87.303 498.943 87.6769 497.329L92.8676 474.923Z" fill="#D9D9D9"/>
<path d="M62.8677 474.923C63.2416 473.308 64.8532 472.303 66.4673 472.677C68.0815 473.051 69.0868 474.663 68.7129 476.277L63.5221 498.683C63.1482 500.297 61.5366 501.303 59.9225 500.929C58.3084 500.555 57.303 498.943 57.6769 497.329L62.8677 474.923Z" fill="#D9D9D9"/>
<path d="M35.8676 474.923C36.2416 473.308 37.8532 472.303 39.4673 472.677C41.0814 473.051 42.0868 474.663 41.7128 476.277L36.5221 498.683C36.1482 500.297 34.5365 501.303 32.9224 500.929C31.3083 500.555 30.303 498.943 30.6769 497.329L35.8676 474.923Z" fill="#D9D9D9"/>
<path d="M5.86769 474.923C6.24162 473.308 7.85324 472.303 9.46735 472.677C11.0815 473.051 12.0868 474.663 11.7129 476.277L6.52215 498.683C6.14822 500.297 4.5366 501.303 2.92249 500.929C1.30838 500.555 0.303016 498.943 0.676943 497.329L5.86769 474.923Z" fill="#D9D9D9"/>
<path d="M548.868 431.923C549.242 430.308 550.853 429.303 552.467 429.677C554.081 430.051 555.087 431.663 554.713 433.277L549.522 455.683C549.148 457.297 547.537 458.303 545.922 457.929C544.308 457.555 543.303 455.943 543.677 454.329L548.868 431.923Z" fill="#D9D9D9"/>
<path d="M518.868 431.923C519.242 430.308 520.853 429.303 522.467 429.677C524.081 430.051 525.087 431.663 524.713 433.277L519.522 455.683C519.148 457.297 517.537 458.303 515.922 457.929C514.308 457.555 513.303 455.943 513.677 454.329L518.868 431.923Z" fill="#D9D9D9"/>
<path d="M491.868 431.923C492.242 430.308 493.853 429.303 495.467 429.677C497.081 430.051 498.087 431.663 497.713 433.277L492.522 455.683C492.148 457.297 490.537 458.303 488.922 457.929C487.308 457.555 486.303 455.943 486.677 454.329L491.868 431.923Z" fill="#D9D9D9"/>
<path d="M461.868 431.923C462.242 430.308 463.853 429.303 465.467 429.677C467.081 430.051 468.087 431.663 467.713 433.277L462.522 455.683C462.148 457.297 460.537 458.303 458.922 457.929C457.308 457.555 456.303 455.943 456.677 454.329L461.868 431.923Z" fill="#D9D9D9"/>
<path d="M434.868 431.923C435.242 430.308 436.853 429.303 438.467 429.677C440.081 430.051 441.087 431.663 440.713 433.277L435.522 455.683C435.148 457.297 433.537 458.303 431.922 457.929C430.308 457.555 429.303 455.943 429.677 454.329L434.868 431.923Z" fill="#D9D9D9"/>
<path d="M404.868 431.923C405.242 430.308 406.853 429.303 408.467 429.677C410.081 430.051 411.087 431.663 410.713 433.277L405.522 455.683C405.148 457.297 403.537 458.303 401.922 457.929C400.308 457.555 399.303 455.943 399.677 454.329L404.868 431.923Z" fill="#D9D9D9"/>
<path d="M377.868 431.923C378.242 430.308 379.853 429.303 381.467 429.677C383.081 430.051 384.087 431.663 383.713 433.277L378.522 455.683C378.148 457.297 376.537 458.303 374.922 457.929C373.308 457.555 372.303 455.943 372.677 454.329L377.868 431.923Z" fill="#D9D9D9"/>
<path d="M347.868 431.923C348.242 430.308 349.853 429.303 351.467 429.677C353.081 430.051 354.087 431.663 353.713 433.277L348.522 455.683C348.148 457.297 346.537 458.303 344.922 457.929C343.308 457.555 342.303 455.943 342.677 454.329L347.868 431.923Z" fill="#D9D9D9"/>
<path d="M320.868 431.923C321.242 430.308 322.853 429.303 324.467 429.677C326.081 430.051 327.087 431.663 326.713 433.277L321.522 455.683C321.148 457.297 319.537 458.303 317.922 457.929C316.308 457.555 315.303 455.943 315.677 454.329L320.868 431.923Z" fill="#D9D9D9"/>
<path d="M290.868 431.923C291.242 430.308 292.853 429.303 294.467 429.677C296.081 430.051 297.087 431.663 296.713 433.277L291.522 455.683C291.148 457.297 289.537 458.303 287.922 457.929C286.308 457.555 285.303 455.943 285.677 454.329L290.868 431.923Z" fill="#D9D9D9"/>
<path d="M263.868 431.923C264.242 430.308 265.853 429.303 267.467 429.677C269.081 430.051 270.087 431.663 269.713 433.277L264.522 455.683C264.148 457.297 262.537 458.303 260.922 457.929C259.308 457.555 258.303 455.943 258.677 454.329L263.868 431.923Z" fill="#D9D9D9"/>
<path d="M233.868 431.923C234.242 430.308 235.853 429.303 237.467 429.677C239.081 430.051 240.087 431.663 239.713 433.277L234.522 455.683C234.148 457.297 232.537 458.303 230.922 457.929C229.308 457.555 228.303 455.943 228.677 454.329L233.868 431.923Z" fill="#D9D9D9"/>
<path d="M206.868 431.923C207.242 430.308 208.853 429.303 210.467 429.677C212.081 430.051 213.087 431.663 212.713 433.277L207.522 455.683C207.148 457.297 205.537 458.303 203.922 457.929C202.308 457.555 201.303 455.943 201.677 454.329L206.868 431.923Z" fill="#D9D9D9"/>
<path d="M176.868 431.923C177.242 430.308 178.853 429.303 180.467 429.677C182.081 430.051 183.087 431.663 182.713 433.277L177.522 455.683C177.148 457.297 175.537 458.303 173.922 457.929C172.308 457.555 171.303 455.943 171.677 454.329L176.868 431.923Z" fill="#D9D9D9"/>
<path d="M149.868 431.923C150.242 430.308 151.853 429.303 153.467 429.677C155.081 430.051 156.087 431.663 155.713 433.277L150.522 455.683C150.148 457.297 148.537 458.303 146.922 457.929C145.308 457.555 144.303 455.943 144.677 454.329L149.868 431.923Z" fill="#D9D9D9"/>
<path d="M119.868 431.923C120.242 430.308 121.853 429.303 123.467 429.677C125.081 430.051 126.087 431.663 125.713 433.277L120.522 455.683C120.148 457.297 118.537 458.303 116.922 457.929C115.308 457.555 114.303 455.943 114.677 454.329L119.868 431.923Z" fill="#D9D9D9"/>
<path d="M92.8676 431.923C93.2416 430.308 94.8532 429.303 96.4673 429.677C98.0814 430.051 99.0868 431.663 98.7128 433.277L93.5221 455.683C93.1482 457.297 91.5365 458.303 89.9224 457.929C88.3083 457.555 87.303 455.943 87.6769 454.329L92.8676 431.923Z" fill="#D9D9D9"/>
<path d="M62.8677 431.923C63.2416 430.308 64.8532 429.303 66.4673 429.677C68.0815 430.051 69.0868 431.663 68.7129 433.277L63.5221 455.683C63.1482 457.297 61.5366 458.303 59.9225 457.929C58.3084 457.555 57.303 455.943 57.6769 454.329L62.8677 431.923Z" fill="#D9D9D9"/>
<path d="M35.8676 431.923C36.2416 430.308 37.8532 429.303 39.4673 429.677C41.0814 430.051 42.0868 431.663 41.7128 433.277L36.5221 455.683C36.1482 457.297 34.5365 458.303 32.9224 457.929C31.3083 457.555 30.303 455.943 30.6769 454.329L35.8676 431.923Z" fill="#D9D9D9"/>
<path d="M5.86769 431.923C6.24162 430.308 7.85324 429.303 9.46735 429.677C11.0815 430.051 12.0868 431.663 11.7129 433.277L6.52215 455.683C6.14822 457.297 4.5366 458.303 2.92249 457.929C1.30838 457.555 0.303016 455.943 0.676943 454.329L5.86769 431.923Z" fill="#D9D9D9"/>
<path d="M548.868 388.923C549.242 387.308 550.853 386.303 552.467 386.677C554.081 387.051 555.087 388.663 554.713 390.277L549.522 412.683C549.148 414.297 547.537 415.303 545.922 414.929C544.308 414.555 543.303 412.943 543.677 411.329L548.868 388.923Z" fill="#D9D9D9"/>
<path d="M518.868 388.923C519.242 387.308 520.853 386.303 522.467 386.677C524.081 387.051 525.087 388.663 524.713 390.277L519.522 412.683C519.148 414.297 517.537 415.303 515.922 414.929C514.308 414.555 513.303 412.943 513.677 411.329L518.868 388.923Z" fill="#D9D9D9"/>
<path d="M491.868 388.923C492.242 387.308 493.853 386.303 495.467 386.677C497.081 387.051 498.087 388.663 497.713 390.277L492.522 412.683C492.148 414.297 490.537 415.303 488.922 414.929C487.308 414.555 486.303 412.943 486.677 411.329L491.868 388.923Z" fill="#D9D9D9"/>
<path d="M461.868 388.923C462.242 387.308 463.853 386.303 465.467 386.677C467.081 387.051 468.087 388.663 467.713 390.277L462.522 412.683C462.148 414.297 460.537 415.303 458.922 414.929C457.308 414.555 456.303 412.943 456.677 411.329L461.868 388.923Z" fill="#D9D9D9"/>
<path d="M434.868 388.923C435.242 387.308 436.853 386.303 438.467 386.677C440.081 387.051 441.087 388.663 440.713 390.277L435.522 412.683C435.148 414.297 433.537 415.303 431.922 414.929C430.308 414.555 429.303 412.943 429.677 411.329L434.868 388.923Z" fill="#D9D9D9"/>
<path d="M404.868 388.923C405.242 387.308 406.853 386.303 408.467 386.677C410.081 387.051 411.087 388.663 410.713 390.277L405.522 412.683C405.148 414.297 403.537 415.303 401.922 414.929C400.308 414.555 399.303 412.943 399.677 411.329L404.868 388.923Z" fill="#D9D9D9"/>
<path d="M377.868 388.923C378.242 387.308 379.853 386.303 381.467 386.677C383.081 387.051 384.087 388.663 383.713 390.277L378.522 412.683C378.148 414.297 376.537 415.303 374.922 414.929C373.308 414.555 372.303 412.943 372.677 411.329L377.868 388.923Z" fill="#D9D9D9"/>
<path d="M347.868 388.923C348.242 387.308 349.853 386.303 351.467 386.677C353.081 387.051 354.087 388.663 353.713 390.277L348.522 412.683C348.148 414.297 346.537 415.303 344.922 414.929C343.308 414.555 342.303 412.943 342.677 411.329L347.868 388.923Z" fill="#D9D9D9"/>
<path d="M320.868 388.923C321.242 387.308 322.853 386.303 324.467 386.677C326.081 387.051 327.087 388.663 326.713 390.277L321.522 412.683C321.148 414.297 319.537 415.303 317.922 414.929C316.308 414.555 315.303 412.943 315.677 411.329L320.868 388.923Z" fill="#D9D9D9"/>
<path d="M290.868 388.923C291.242 387.308 292.853 386.303 294.467 386.677C296.081 387.051 297.087 388.663 296.713 390.277L291.522 412.683C291.148 414.297 289.537 415.303 287.922 414.929C286.308 414.555 285.303 412.943 285.677 411.329L290.868 388.923Z" fill="#D9D9D9"/>
<path d="M263.868 388.923C264.242 387.308 265.853 386.303 267.467 386.677C269.081 387.051 270.087 388.663 269.713 390.277L264.522 412.683C264.148 414.297 262.537 415.303 260.922 414.929C259.308 414.555 258.303 412.943 258.677 411.329L263.868 388.923Z" fill="#D9D9D9"/>
<path d="M233.868 388.923C234.242 387.308 235.853 386.303 237.467 386.677C239.081 387.051 240.087 388.663 239.713 390.277L234.522 412.683C234.148 414.297 232.537 415.303 230.922 414.929C229.308 414.555 228.303 412.943 228.677 411.329L233.868 388.923Z" fill="#D9D9D9"/>
<path d="M206.868 388.923C207.242 387.308 208.853 386.303 210.467 386.677C212.081 387.051 213.087 388.663 212.713 390.277L207.522 412.683C207.148 414.297 205.537 415.303 203.922 414.929C202.308 414.555 201.303 412.943 201.677 411.329L206.868 388.923Z" fill="#D9D9D9"/>
<path d="M176.868 388.923C177.242 387.308 178.853 386.303 180.467 386.677C182.081 387.051 183.087 388.663 182.713 390.277L177.522 412.683C177.148 414.297 175.537 415.303 173.922 414.929C172.308 414.555 171.303 412.943 171.677 411.329L176.868 388.923Z" fill="#D9D9D9"/>
<path d="M149.868 388.923C150.242 387.308 151.853 386.303 153.467 386.677C155.081 387.051 156.087 388.663 155.713 390.277L150.522 412.683C150.148 414.297 148.537 415.303 146.922 414.929C145.308 414.555 144.303 412.943 144.677 411.329L149.868 388.923Z" fill="#D9D9D9"/>
<path d="M119.868 388.923C120.242 387.308 121.853 386.303 123.467 386.677C125.081 387.051 126.087 388.663 125.713 390.277L120.522 412.683C120.148 414.297 118.537 415.303 116.922 414.929C115.308 414.555 114.303 412.943 114.677 411.329L119.868 388.923Z" fill="#D9D9D9"/>
<path d="M92.8676 388.923C93.2416 387.308 94.8532 386.303 96.4673 386.677C98.0814 387.051 99.0868 388.663 98.7128 390.277L93.5221 412.683C93.1482 414.297 91.5365 415.303 89.9224 414.929C88.3083 414.555 87.303 412.943 87.6769 411.329L92.8676 388.923Z" fill="#D9D9D9"/>
<path d="M62.8677 388.923C63.2416 387.308 64.8532 386.303 66.4673 386.677C68.0815 387.051 69.0868 388.663 68.7129 390.277L63.5221 412.683C63.1482 414.297 61.5366 415.303 59.9225 414.929C58.3084 414.555 57.303 412.943 57.6769 411.329L62.8677 388.923Z" fill="#D9D9D9"/>
<path d="M35.8676 388.923C36.2416 387.308 37.8532 386.303 39.4673 386.677C41.0814 387.051 42.0868 388.663 41.7128 390.277L36.5221 412.683C36.1482 414.297 34.5365 415.303 32.9224 414.929C31.3083 414.555 30.303 412.943 30.6769 411.329L35.8676 388.923Z" fill="#D9D9D9"/>
<path d="M5.86769 388.923C6.24162 387.308 7.85324 386.303 9.46735 386.677C11.0815 387.051 12.0868 388.663 11.7129 390.277L6.52215 412.683C6.14822 414.297 4.5366 415.303 2.92249 414.929C1.30838 414.555 0.303016 412.943 0.676943 411.329L5.86769 388.923Z" fill="#D9D9D9"/>
<path d="M548.868 345.923C549.242 344.308 550.853 343.303 552.467 343.677C554.081 344.051 555.087 345.663 554.713 347.277L549.522 369.683C549.148 371.297 547.537 372.303 545.922 371.929C544.308 371.555 543.303 369.943 543.677 368.329L548.868 345.923Z" fill="#D9D9D9"/>
<path d="M518.868 345.923C519.242 344.308 520.853 343.303 522.467 343.677C524.081 344.051 525.087 345.663 524.713 347.277L519.522 369.683C519.148 371.297 517.537 372.303 515.922 371.929C514.308 371.555 513.303 369.943 513.677 368.329L518.868 345.923Z" fill="#D9D9D9"/>
<path d="M491.868 345.923C492.242 344.308 493.853 343.303 495.467 343.677C497.081 344.051 498.087 345.663 497.713 347.277L492.522 369.683C492.148 371.297 490.537 372.303 488.922 371.929C487.308 371.555 486.303 369.943 486.677 368.329L491.868 345.923Z" fill="#D9D9D9"/>
<path d="M461.868 345.923C462.242 344.308 463.853 343.303 465.467 343.677C467.081 344.051 468.087 345.663 467.713 347.277L462.522 369.683C462.148 371.297 460.537 372.303 458.922 371.929C457.308 371.555 456.303 369.943 456.677 368.329L461.868 345.923Z" fill="#D9D9D9"/>
<path d="M434.868 345.923C435.242 344.308 436.853 343.303 438.467 343.677C440.081 344.051 441.087 345.663 440.713 347.277L435.522 369.683C435.148 371.297 433.537 372.303 431.922 371.929C430.308 371.555 429.303 369.943 429.677 368.329L434.868 345.923Z" fill="#D9D9D9"/>
<path d="M404.868 345.923C405.242 344.308 406.853 343.303 408.467 343.677C410.081 344.051 411.087 345.663 410.713 347.277L405.522 369.683C405.148 371.297 403.537 372.303 401.922 371.929C400.308 371.555 399.303 369.943 399.677 368.329L404.868 345.923Z" fill="#D9D9D9"/>
<path d="M377.868 345.923C378.242 344.308 379.853 343.303 381.467 343.677C383.081 344.051 384.087 345.663 383.713 347.277L378.522 369.683C378.148 371.297 376.537 372.303 374.922 371.929C373.308 371.555 372.303 369.943 372.677 368.329L377.868 345.923Z" fill="#D9D9D9"/>
<path d="M347.868 345.923C348.242 344.308 349.853 343.303 351.467 343.677C353.081 344.051 354.087 345.663 353.713 347.277L348.522 369.683C348.148 371.297 346.537 372.303 344.922 371.929C343.308 371.555 342.303 369.943 342.677 368.329L347.868 345.923Z" fill="#D9D9D9"/>
<path d="M320.868 345.923C321.242 344.308 322.853 343.303 324.467 343.677C326.081 344.051 327.087 345.663 326.713 347.277L321.522 369.683C321.148 371.297 319.537 372.303 317.922 371.929C316.308 371.555 315.303 369.943 315.677 368.329L320.868 345.923Z" fill="#D9D9D9"/>
<path d="M290.868 345.923C291.242 344.308 292.853 343.303 294.467 343.677C296.081 344.051 297.087 345.663 296.713 347.277L291.522 369.683C291.148 371.297 289.537 372.303 287.922 371.929C286.308 371.555 285.303 369.943 285.677 368.329L290.868 345.923Z" fill="#D9D9D9"/>
<path d="M263.868 345.923C264.242 344.308 265.853 343.303 267.467 343.677C269.081 344.051 270.087 345.663 269.713 347.277L264.522 369.683C264.148 371.297 262.537 372.303 260.922 371.929C259.308 371.555 258.303 369.943 258.677 368.329L263.868 345.923Z" fill="#D9D9D9"/>
<path d="M233.868 345.923C234.242 344.308 235.853 343.303 237.467 343.677C239.081 344.051 240.087 345.663 239.713 347.277L234.522 369.683C234.148 371.297 232.537 372.303 230.922 371.929C229.308 371.555 228.303 369.943 228.677 368.329L233.868 345.923Z" fill="#D9D9D9"/>
<path d="M206.868 345.923C207.242 344.308 208.853 343.303 210.467 343.677C212.081 344.051 213.087 345.663 212.713 347.277L207.522 369.683C207.148 371.297 205.537 372.303 203.922 371.929C202.308 371.555 201.303 369.943 201.677 368.329L206.868 345.923Z" fill="#D9D9D9"/>
<path d="M176.868 345.923C177.242 344.308 178.853 343.303 180.467 343.677C182.081 344.051 183.087 345.663 182.713 347.277L177.522 369.683C177.148 371.297 175.537 372.303 173.922 371.929C172.308 371.555 171.303 369.943 171.677 368.329L176.868 345.923Z" fill="#D9D9D9"/>
<path d="M149.868 345.923C150.242 344.308 151.853 343.303 153.467 343.677C155.081 344.051 156.087 345.663 155.713 347.277L150.522 369.683C150.148 371.297 148.537 372.303 146.922 371.929C145.308 371.555 144.303 369.943 144.677 368.329L149.868 345.923Z" fill="#D9D9D9"/>
<path d="M119.868 345.923C120.242 344.308 121.853 343.303 123.467 343.677C125.081 344.051 126.087 345.663 125.713 347.277L120.522 369.683C120.148 371.297 118.537 372.303 116.922 371.929C115.308 371.555 114.303 369.943 114.677 368.329L119.868 345.923Z" fill="#D9D9D9"/>
<path d="M92.8676 345.923C93.2416 344.308 94.8532 343.303 96.4673 343.677C98.0814 344.051 99.0868 345.663 98.7128 347.277L93.5221 369.683C93.1482 371.297 91.5365 372.303 89.9224 371.929C88.3083 371.555 87.303 369.943 87.6769 368.329L92.8676 345.923Z" fill="#D9D9D9"/>
<path d="M62.8677 345.923C63.2416 344.308 64.8532 343.303 66.4673 343.677C68.0815 344.051 69.0868 345.663 68.7129 347.277L63.5221 369.683C63.1482 371.297 61.5366 372.303 59.9225 371.929C58.3084 371.555 57.303 369.943 57.6769 368.329L62.8677 345.923Z" fill="#D9D9D9"/>
<path d="M35.8676 345.923C36.2416 344.308 37.8532 343.303 39.4673 343.677C41.0814 344.051 42.0868 345.663 41.7128 347.277L36.5221 369.683C36.1482 371.297 34.5365 372.303 32.9224 371.929C31.3083 371.555 30.303 369.943 30.6769 368.329L35.8676 345.923Z" fill="#D9D9D9"/>
<path d="M5.86769 345.923C6.24162 344.308 7.85324 343.303 9.46735 343.677C11.0815 344.051 12.0868 345.663 11.7129 347.277L6.52215 369.683C6.14822 371.297 4.5366 372.303 2.92249 371.929C1.30838 371.555 0.303016 369.943 0.676943 368.329L5.86769 345.923Z" fill="#D9D9D9"/>
<path d="M548.868 302.923C549.242 301.308 550.853 300.303 552.467 300.677C554.081 301.051 555.087 302.663 554.713 304.277L549.522 326.683C549.148 328.297 547.537 329.303 545.922 328.929C544.308 328.555 543.303 326.943 543.677 325.329L548.868 302.923Z" fill="#D9D9D9"/>
<path d="M518.868 302.923C519.242 301.308 520.853 300.303 522.467 300.677C524.081 301.051 525.087 302.663 524.713 304.277L519.522 326.683C519.148 328.297 517.537 329.303 515.922 328.929C514.308 328.555 513.303 326.943 513.677 325.329L518.868 302.923Z" fill="#D9D9D9"/>
<path d="M491.868 302.923C492.242 301.308 493.853 300.303 495.467 300.677C497.081 301.051 498.087 302.663 497.713 304.277L492.522 326.683C492.148 328.297 490.537 329.303 488.922 328.929C487.308 328.555 486.303 326.943 486.677 325.329L491.868 302.923Z" fill="#D9D9D9"/>
<path d="M461.868 302.923C462.242 301.308 463.853 300.303 465.467 300.677C467.081 301.051 468.087 302.663 467.713 304.277L462.522 326.683C462.148 328.297 460.537 329.303 458.922 328.929C457.308 328.555 456.303 326.943 456.677 325.329L461.868 302.923Z" fill="#D9D9D9"/>
<path d="M434.868 302.923C435.242 301.308 436.853 300.303 438.467 300.677C440.081 301.051 441.087 302.663 440.713 304.277L435.522 326.683C435.148 328.297 433.537 329.303 431.922 328.929C430.308 328.555 429.303 326.943 429.677 325.329L434.868 302.923Z" fill="#D9D9D9"/>
<path d="M404.868 302.923C405.242 301.308 406.853 300.303 408.467 300.677C410.081 301.051 411.087 302.663 410.713 304.277L405.522 326.683C405.148 328.297 403.537 329.303 401.922 328.929C400.308 328.555 399.303 326.943 399.677 325.329L404.868 302.923Z" fill="#D9D9D9"/>
<path d="M377.868 302.923C378.242 301.308 379.853 300.303 381.467 300.677C383.081 301.051 384.087 302.663 383.713 304.277L378.522 326.683C378.148 328.297 376.537 329.303 374.922 328.929C373.308 328.555 372.303 326.943 372.677 325.329L377.868 302.923Z" fill="#D9D9D9"/>
<path d="M347.868 302.923C348.242 301.308 349.853 300.303 351.467 300.677C353.081 301.051 354.087 302.663 353.713 304.277L348.522 326.683C348.148 328.297 346.537 329.303 344.922 328.929C343.308 328.555 342.303 326.943 342.677 325.329L347.868 302.923Z" fill="#D9D9D9"/>
<path d="M320.868 302.923C321.242 301.308 322.853 300.303 324.467 300.677C326.081 301.051 327.087 302.663 326.713 304.277L321.522 326.683C321.148 328.297 319.537 329.303 317.922 328.929C316.308 328.555 315.303 326.943 315.677 325.329L320.868 302.923Z" fill="#D9D9D9"/>
<path d="M290.868 302.923C291.242 301.308 292.853 300.303 294.467 300.677C296.081 301.051 297.087 302.663 296.713 304.277L291.522 326.683C291.148 328.297 289.537 329.303 287.922 328.929C286.308 328.555 285.303 326.943 285.677 325.329L290.868 302.923Z" fill="#D9D9D9"/>
<path d="M263.868 302.923C264.242 301.308 265.853 300.303 267.467 300.677C269.081 301.051 270.087 302.663 269.713 304.277L264.522 326.683C264.148 328.297 262.537 329.303 260.922 328.929C259.308 328.555 258.303 326.943 258.677 325.329L263.868 302.923Z" fill="#D9D9D9"/>
<path d="M233.868 302.923C234.242 301.308 235.853 300.303 237.467 300.677C239.081 301.051 240.087 302.663 239.713 304.277L234.522 326.683C234.148 328.297 232.537 329.303 230.922 328.929C229.308 328.555 228.303 326.943 228.677 325.329L233.868 302.923Z" fill="#D9D9D9"/>
<path d="M206.868 302.923C207.242 301.308 208.853 300.303 210.467 300.677C212.081 301.051 213.087 302.663 212.713 304.277L207.522 326.683C207.148 328.297 205.537 329.303 203.922 328.929C202.308 328.555 201.303 326.943 201.677 325.329L206.868 302.923Z" fill="#D9D9D9"/>
<path d="M176.868 302.923C177.242 301.308 178.853 300.303 180.467 300.677C182.081 301.051 183.087 302.663 182.713 304.277L177.522 326.683C177.148 328.297 175.537 329.303 173.922 328.929C172.308 328.555 171.303 326.943 171.677 325.329L176.868 302.923Z" fill="#D9D9D9"/>
<path d="M149.868 302.923C150.242 301.308 151.853 300.303 153.467 300.677C155.081 301.051 156.087 302.663 155.713 304.277L150.522 326.683C150.148 328.297 148.537 329.303 146.922 328.929C145.308 328.555 144.303 326.943 144.677 325.329L149.868 302.923Z" fill="#D9D9D9"/>
<path d="M119.868 302.923C120.242 301.308 121.853 300.303 123.467 300.677C125.081 301.051 126.087 302.663 125.713 304.277L120.522 326.683C120.148 328.297 118.537 329.303 116.922 328.929C115.308 328.555 114.303 326.943 114.677 325.329L119.868 302.923Z" fill="#D9D9D9"/>
<path d="M92.8676 302.923C93.2416 301.308 94.8532 300.303 96.4673 300.677C98.0814 301.051 99.0868 302.663 98.7128 304.277L93.5221 326.683C93.1482 328.297 91.5365 329.303 89.9224 328.929C88.3083 328.555 87.303 326.943 87.6769 325.329L92.8676 302.923Z" fill="#D9D9D9"/>
<path d="M62.8677 302.923C63.2416 301.308 64.8532 300.303 66.4673 300.677C68.0815 301.051 69.0868 302.663 68.7129 304.277L63.5221 326.683C63.1482 328.297 61.5366 329.303 59.9225 328.929C58.3084 328.555 57.303 326.943 57.6769 325.329L62.8677 302.923Z" fill="#D9D9D9"/>
<path d="M35.8676 302.923C36.2416 301.308 37.8532 300.303 39.4673 300.677C41.0814 301.051 42.0868 302.663 41.7128 304.277L36.5221 326.683C36.1482 328.297 34.5365 329.303 32.9224 328.929C31.3083 328.555 30.303 326.943 30.6769 325.329L35.8676 302.923Z" fill="#D9D9D9"/>
<path d="M5.86769 302.923C6.24162 301.308 7.85324 300.303 9.46735 300.677C11.0815 301.051 12.0868 302.663 11.7129 304.277L6.52215 326.683C6.14822 328.297 4.5366 329.303 2.92249 328.929C1.30838 328.555 0.303016 326.943 0.676943 325.329L5.86769 302.923Z" fill="#D9D9D9"/>
<path d="M548.868 259.923C549.242 258.308 550.853 257.303 552.467 257.677C554.081 258.051 555.087 259.663 554.713 261.277L549.522 283.683C549.148 285.297 547.537 286.303 545.922 285.929C544.308 285.555 543.303 283.943 543.677 282.329L548.868 259.923Z" fill="#D9D9D9"/>
<path d="M518.868 259.923C519.242 258.308 520.853 257.303 522.467 257.677C524.081 258.051 525.087 259.663 524.713 261.277L519.522 283.683C519.148 285.297 517.537 286.303 515.922 285.929C514.308 285.555 513.303 283.943 513.677 282.329L518.868 259.923Z" fill="#D9D9D9"/>
<path d="M491.868 259.923C492.242 258.308 493.853 257.303 495.467 257.677C497.081 258.051 498.087 259.663 497.713 261.277L492.522 283.683C492.148 285.297 490.537 286.303 488.922 285.929C487.308 285.555 486.303 283.943 486.677 282.329L491.868 259.923Z" fill="#D9D9D9"/>
<path d="M461.868 259.923C462.242 258.308 463.853 257.303 465.467 257.677C467.081 258.051 468.087 259.663 467.713 261.277L462.522 283.683C462.148 285.297 460.537 286.303 458.922 285.929C457.308 285.555 456.303 283.943 456.677 282.329L461.868 259.923Z" fill="#D9D9D9"/>
<path d="M434.868 259.923C435.242 258.308 436.853 257.303 438.467 257.677C440.081 258.051 441.087 259.663 440.713 261.277L435.522 283.683C435.148 285.297 433.537 286.303 431.922 285.929C430.308 285.555 429.303 283.943 429.677 282.329L434.868 259.923Z" fill="#D9D9D9"/>
<path d="M404.868 259.923C405.242 258.308 406.853 257.303 408.467 257.677C410.081 258.051 411.087 259.663 410.713 261.277L405.522 283.683C405.148 285.297 403.537 286.303 401.922 285.929C400.308 285.555 399.303 283.943 399.677 282.329L404.868 259.923Z" fill="#D9D9D9"/>
<path d="M377.868 259.923C378.242 258.308 379.853 257.303 381.467 257.677C383.081 258.051 384.087 259.663 383.713 261.277L378.522 283.683C378.148 285.297 376.537 286.303 374.922 285.929C373.308 285.555 372.303 283.943 372.677 282.329L377.868 259.923Z" fill="#D9D9D9"/>
<path d="M347.868 259.923C348.242 258.308 349.853 257.303 351.467 257.677C353.081 258.051 354.087 259.663 353.713 261.277L348.522 283.683C348.148 285.297 346.537 286.303 344.922 285.929C343.308 285.555 342.303 283.943 342.677 282.329L347.868 259.923Z" fill="#D9D9D9"/>
<path d="M320.868 259.923C321.242 258.308 322.853 257.303 324.467 257.677C326.081 258.051 327.087 259.663 326.713 261.277L321.522 283.683C321.148 285.297 319.537 286.303 317.922 285.929C316.308 285.555 315.303 283.943 315.677 282.329L320.868 259.923Z" fill="#D9D9D9"/>
<path d="M290.868 259.923C291.242 258.308 292.853 257.303 294.467 257.677C296.081 258.051 297.087 259.663 296.713 261.277L291.522 283.683C291.148 285.297 289.537 286.303 287.922 285.929C286.308 285.555 285.303 283.943 285.677 282.329L290.868 259.923Z" fill="#D9D9D9"/>
<path d="M263.868 259.923C264.242 258.308 265.853 257.303 267.467 257.677C269.081 258.051 270.087 259.663 269.713 261.277L264.522 283.683C264.148 285.297 262.537 286.303 260.922 285.929C259.308 285.555 258.303 283.943 258.677 282.329L263.868 259.923Z" fill="#D9D9D9"/>
<path d="M233.868 259.923C234.242 258.308 235.853 257.303 237.467 257.677C239.081 258.051 240.087 259.663 239.713 261.277L234.522 283.683C234.148 285.297 232.537 286.303 230.922 285.929C229.308 285.555 228.303 283.943 228.677 282.329L233.868 259.923Z" fill="#D9D9D9"/>
<path d="M206.868 259.923C207.242 258.308 208.853 257.303 210.467 257.677C212.081 258.051 213.087 259.663 212.713 261.277L207.522 283.683C207.148 285.297 205.537 286.303 203.922 285.929C202.308 285.555 201.303 283.943 201.677 282.329L206.868 259.923Z" fill="#D9D9D9"/>
<path d="M176.868 259.923C177.242 258.308 178.853 257.303 180.467 257.677C182.081 258.051 183.087 259.663 182.713 261.277L177.522 283.683C177.148 285.297 175.537 286.303 173.922 285.929C172.308 285.555 171.303 283.943 171.677 282.329L176.868 259.923Z" fill="#D9D9D9"/>
<path d="M149.868 259.923C150.242 258.308 151.853 257.303 153.467 257.677C155.081 258.051 156.087 259.663 155.713 261.277L150.522 283.683C150.148 285.297 148.537 286.303 146.922 285.929C145.308 285.555 144.303 283.943 144.677 282.329L149.868 259.923Z" fill="#D9D9D9"/>
<path d="M119.868 259.923C120.242 258.308 121.853 257.303 123.467 257.677C125.081 258.051 126.087 259.663 125.713 261.277L120.522 283.683C120.148 285.297 118.537 286.303 116.922 285.929C115.308 285.555 114.303 283.943 114.677 282.329L119.868 259.923Z" fill="#D9D9D9"/>
<path d="M92.8676 259.923C93.2416 258.308 94.8532 257.303 96.4673 257.677C98.0814 258.051 99.0868 259.663 98.7128 261.277L93.5221 283.683C93.1482 285.297 91.5365 286.303 89.9224 285.929C88.3083 285.555 87.303 283.943 87.6769 282.329L92.8676 259.923Z" fill="#D9D9D9"/>
<path d="M62.8677 259.923C63.2416 258.308 64.8532 257.303 66.4673 257.677C68.0815 258.051 69.0868 259.663 68.7129 261.277L63.5221 283.683C63.1482 285.297 61.5366 286.303 59.9225 285.929C58.3084 285.555 57.303 283.943 57.6769 282.329L62.8677 259.923Z" fill="#D9D9D9"/>
<path d="M35.8676 259.923C36.2416 258.308 37.8532 257.303 39.4673 257.677C41.0814 258.051 42.0868 259.663 41.7128 261.277L36.5221 283.683C36.1482 285.297 34.5365 286.303 32.9224 285.929C31.3083 285.555 30.303 283.943 30.6769 282.329L35.8676 259.923Z" fill="#D9D9D9"/>
<path d="M5.86769 259.923C6.24162 258.308 7.85324 257.303 9.46735 257.677C11.0815 258.051 12.0868 259.663 11.7129 261.277L6.52215 283.683C6.14822 285.297 4.5366 286.303 2.92249 285.929C1.30838 285.555 0.303016 283.943 0.676943 282.329L5.86769 259.923Z" fill="#D9D9D9"/>
<path d="M548.868 216.923C549.242 215.308 550.853 214.303 552.467 214.677C554.081 215.051 555.087 216.663 554.713 218.277L549.522 240.683C549.148 242.297 547.537 243.303 545.922 242.929C544.308 242.555 543.303 240.943 543.677 239.329L548.868 216.923Z" fill="#D9D9D9"/>
<path d="M518.868 216.923C519.242 215.308 520.853 214.303 522.467 214.677C524.081 215.051 525.087 216.663 524.713 218.277L519.522 240.683C519.148 242.297 517.537 243.303 515.922 242.929C514.308 242.555 513.303 240.943 513.677 239.329L518.868 216.923Z" fill="#D9D9D9"/>
<path d="M491.868 216.923C492.242 215.308 493.853 214.303 495.467 214.677C497.081 215.051 498.087 216.663 497.713 218.277L492.522 240.683C492.148 242.297 490.537 243.303 488.922 242.929C487.308 242.555 486.303 240.943 486.677 239.329L491.868 216.923Z" fill="#D9D9D9"/>
<path d="M461.868 216.923C462.242 215.308 463.853 214.303 465.467 214.677C467.081 215.051 468.087 216.663 467.713 218.277L462.522 240.683C462.148 242.297 460.537 243.303 458.922 242.929C457.308 242.555 456.303 240.943 456.677 239.329L461.868 216.923Z" fill="#D9D9D9"/>
<path d="M434.868 216.923C435.242 215.308 436.853 214.303 438.467 214.677C440.081 215.051 441.087 216.663 440.713 218.277L435.522 240.683C435.148 242.297 433.537 243.303 431.922 242.929C430.308 242.555 429.303 240.943 429.677 239.329L434.868 216.923Z" fill="#D9D9D9"/>
<path d="M404.868 216.923C405.242 215.308 406.853 214.303 408.467 214.677C410.081 215.051 411.087 216.663 410.713 218.277L405.522 240.683C405.148 242.297 403.537 243.303 401.922 242.929C400.308 242.555 399.303 240.943 399.677 239.329L404.868 216.923Z" fill="#D9D9D9"/>
<path d="M377.868 216.923C378.242 215.308 379.853 214.303 381.467 214.677C383.081 215.051 384.087 216.663 383.713 218.277L378.522 240.683C378.148 242.297 376.537 243.303 374.922 242.929C373.308 242.555 372.303 240.943 372.677 239.329L377.868 216.923Z" fill="#D9D9D9"/>
<path d="M347.868 216.923C348.242 215.308 349.853 214.303 351.467 214.677C353.081 215.051 354.087 216.663 353.713 218.277L348.522 240.683C348.148 242.297 346.537 243.303 344.922 242.929C343.308 242.555 342.303 240.943 342.677 239.329L347.868 216.923Z" fill="#D9D9D9"/>
<path d="M320.868 216.923C321.242 215.308 322.853 214.303 324.467 214.677C326.081 215.051 327.087 216.663 326.713 218.277L321.522 240.683C321.148 242.297 319.537 243.303 317.922 242.929C316.308 242.555 315.303 240.943 315.677 239.329L320.868 216.923Z" fill="#D9D9D9"/>
<path d="M290.868 216.923C291.242 215.308 292.853 214.303 294.467 214.677C296.081 215.051 297.087 216.663 296.713 218.277L291.522 240.683C291.148 242.297 289.537 243.303 287.922 242.929C286.308 242.555 285.303 240.943 285.677 239.329L290.868 216.923Z" fill="#D9D9D9"/>
<path d="M263.868 216.923C264.242 215.308 265.853 214.303 267.467 214.677C269.081 215.051 270.087 216.663 269.713 218.277L264.522 240.683C264.148 242.297 262.537 243.303 260.922 242.929C259.308 242.555 258.303 240.943 258.677 239.329L263.868 216.923Z" fill="#D9D9D9"/>
<path d="M233.868 216.923C234.242 215.308 235.853 214.303 237.467 214.677C239.081 215.051 240.087 216.663 239.713 218.277L234.522 240.683C234.148 242.297 232.537 243.303 230.922 242.929C229.308 242.555 228.303 240.943 228.677 239.329L233.868 216.923Z" fill="#D9D9D9"/>
<path d="M206.868 216.923C207.242 215.308 208.853 214.303 210.467 214.677C212.081 215.051 213.087 216.663 212.713 218.277L207.522 240.683C207.148 242.297 205.537 243.303 203.922 242.929C202.308 242.555 201.303 240.943 201.677 239.329L206.868 216.923Z" fill="#D9D9D9"/>
<path d="M176.868 216.923C177.242 215.308 178.853 214.303 180.467 214.677C182.081 215.051 183.087 216.663 182.713 218.277L177.522 240.683C177.148 242.297 175.537 243.303 173.922 242.929C172.308 242.555 171.303 240.943 171.677 239.329L176.868 216.923Z" fill="#D9D9D9"/>
<path d="M149.868 216.923C150.242 215.308 151.853 214.303 153.467 214.677C155.081 215.051 156.087 216.663 155.713 218.277L150.522 240.683C150.148 242.297 148.537 243.303 146.922 242.929C145.308 242.555 144.303 240.943 144.677 239.329L149.868 216.923Z" fill="#D9D9D9"/>
<path d="M119.868 216.923C120.242 215.308 121.853 214.303 123.467 214.677C125.081 215.051 126.087 216.663 125.713 218.277L120.522 240.683C120.148 242.297 118.537 243.303 116.922 242.929C115.308 242.555 114.303 240.943 114.677 239.329L119.868 216.923Z" fill="#D9D9D9"/>
<path d="M92.8676 216.923C93.2416 215.308 94.8532 214.303 96.4673 214.677C98.0814 215.051 99.0868 216.663 98.7128 218.277L93.5221 240.683C93.1482 242.297 91.5365 243.303 89.9224 242.929C88.3083 242.555 87.303 240.943 87.6769 239.329L92.8676 216.923Z" fill="#D9D9D9"/>
<path d="M62.8677 216.923C63.2416 215.308 64.8532 214.303 66.4673 214.677C68.0815 215.051 69.0868 216.663 68.7129 218.277L63.5221 240.683C63.1482 242.297 61.5366 243.303 59.9225 242.929C58.3084 242.555 57.303 240.943 57.6769 239.329L62.8677 216.923Z" fill="#D9D9D9"/>
<path d="M35.8676 216.923C36.2416 215.308 37.8532 214.303 39.4673 214.677C41.0814 215.051 42.0868 216.663 41.7128 218.277L36.5221 240.683C36.1482 242.297 34.5365 243.303 32.9224 242.929C31.3083 242.555 30.303 240.943 30.6769 239.329L35.8676 216.923Z" fill="#D9D9D9"/>
<path d="M5.86769 216.923C6.24162 215.308 7.85324 214.303 9.46735 214.677C11.0815 215.051 12.0868 216.663 11.7129 218.277L6.52215 240.683C6.14822 242.297 4.5366 243.303 2.92249 242.929C1.30838 242.555 0.303016 240.943 0.676943 239.329L5.86769 216.923Z" fill="#D9D9D9"/>
<path d="M548.868 173.923C549.242 172.308 550.853 171.303 552.467 171.677C554.081 172.051 555.087 173.663 554.713 175.277L549.522 197.683C549.148 199.297 547.537 200.303 545.922 199.929C544.308 199.555 543.303 197.943 543.677 196.329L548.868 173.923Z" fill="#D9D9D9"/>
<path d="M518.868 173.923C519.242 172.308 520.853 171.303 522.467 171.677C524.081 172.051 525.087 173.663 524.713 175.277L519.522 197.683C519.148 199.297 517.537 200.303 515.922 199.929C514.308 199.555 513.303 197.943 513.677 196.329L518.868 173.923Z" fill="#D9D9D9"/>
<path d="M491.868 173.923C492.242 172.308 493.853 171.303 495.467 171.677C497.081 172.051 498.087 173.663 497.713 175.277L492.522 197.683C492.148 199.297 490.537 200.303 488.922 199.929C487.308 199.555 486.303 197.943 486.677 196.329L491.868 173.923Z" fill="#D9D9D9"/>
<path d="M461.868 173.923C462.242 172.308 463.853 171.303 465.467 171.677C467.081 172.051 468.087 173.663 467.713 175.277L462.522 197.683C462.148 199.297 460.537 200.303 458.922 199.929C457.308 199.555 456.303 197.943 456.677 196.329L461.868 173.923Z" fill="#D9D9D9"/>
<path d="M434.868 173.923C435.242 172.308 436.853 171.303 438.467 171.677C440.081 172.051 441.087 173.663 440.713 175.277L435.522 197.683C435.148 199.297 433.537 200.303 431.922 199.929C430.308 199.555 429.303 197.943 429.677 196.329L434.868 173.923Z" fill="#D9D9D9"/>
<path d="M404.868 173.923C405.242 172.308 406.853 171.303 408.467 171.677C410.081 172.051 411.087 173.663 410.713 175.277L405.522 197.683C405.148 199.297 403.537 200.303 401.922 199.929C400.308 199.555 399.303 197.943 399.677 196.329L404.868 173.923Z" fill="#D9D9D9"/>
<path d="M377.868 173.923C378.242 172.308 379.853 171.303 381.467 171.677C383.081 172.051 384.087 173.663 383.713 175.277L378.522 197.683C378.148 199.297 376.537 200.303 374.922 199.929C373.308 199.555 372.303 197.943 372.677 196.329L377.868 173.923Z" fill="#D9D9D9"/>
<path d="M347.868 173.923C348.242 172.308 349.853 171.303 351.467 171.677C353.081 172.051 354.087 173.663 353.713 175.277L348.522 197.683C348.148 199.297 346.537 200.303 344.922 199.929C343.308 199.555 342.303 197.943 342.677 196.329L347.868 173.923Z" fill="#D9D9D9"/>
<path d="M320.868 173.923C321.242 172.308 322.853 171.303 324.467 171.677C326.081 172.051 327.087 173.663 326.713 175.277L321.522 197.683C321.148 199.297 319.537 200.303 317.922 199.929C316.308 199.555 315.303 197.943 315.677 196.329L320.868 173.923Z" fill="#D9D9D9"/>
<path d="M290.868 173.923C291.242 172.308 292.853 171.303 294.467 171.677C296.081 172.051 297.087 173.663 296.713 175.277L291.522 197.683C291.148 199.297 289.537 200.303 287.922 199.929C286.308 199.555 285.303 197.943 285.677 196.329L290.868 173.923Z" fill="#D9D9D9"/>
<path d="M263.868 173.923C264.242 172.308 265.853 171.303 267.467 171.677C269.081 172.051 270.087 173.663 269.713 175.277L264.522 197.683C264.148 199.297 262.537 200.303 260.922 199.929C259.308 199.555 258.303 197.943 258.677 196.329L263.868 173.923Z" fill="#D9D9D9"/>
<path d="M233.868 173.923C234.242 172.308 235.853 171.303 237.467 171.677C239.081 172.051 240.087 173.663 239.713 175.277L234.522 197.683C234.148 199.297 232.537 200.303 230.922 199.929C229.308 199.555 228.303 197.943 228.677 196.329L233.868 173.923Z" fill="#D9D9D9"/>
<path d="M206.868 173.923C207.242 172.308 208.853 171.303 210.467 171.677C212.081 172.051 213.087 173.663 212.713 175.277L207.522 197.683C207.148 199.297 205.537 200.303 203.922 199.929C202.308 199.555 201.303 197.943 201.677 196.329L206.868 173.923Z" fill="#D9D9D9"/>
<path d="M176.868 173.923C177.242 172.308 178.853 171.303 180.467 171.677C182.081 172.051 183.087 173.663 182.713 175.277L177.522 197.683C177.148 199.297 175.537 200.303 173.922 199.929C172.308 199.555 171.303 197.943 171.677 196.329L176.868 173.923Z" fill="#D9D9D9"/>
<path d="M149.868 173.923C150.242 172.308 151.853 171.303 153.467 171.677C155.081 172.051 156.087 173.663 155.713 175.277L150.522 197.683C150.148 199.297 148.537 200.303 146.922 199.929C145.308 199.555 144.303 197.943 144.677 196.329L149.868 173.923Z" fill="#D9D9D9"/>
<path d="M119.868 173.923C120.242 172.308 121.853 171.303 123.467 171.677C125.081 172.051 126.087 173.663 125.713 175.277L120.522 197.683C120.148 199.297 118.537 200.303 116.922 199.929C115.308 199.555 114.303 197.943 114.677 196.329L119.868 173.923Z" fill="#D9D9D9"/>
<path d="M92.8676 173.923C93.2416 172.308 94.8532 171.303 96.4673 171.677C98.0814 172.051 99.0868 173.663 98.7128 175.277L93.5221 197.683C93.1482 199.297 91.5365 200.303 89.9224 199.929C88.3083 199.555 87.303 197.943 87.6769 196.329L92.8676 173.923Z" fill="#D9D9D9"/>
<path d="M62.8677 173.923C63.2416 172.308 64.8532 171.303 66.4673 171.677C68.0815 172.051 69.0868 173.663 68.7129 175.277L63.5221 197.683C63.1482 199.297 61.5366 200.303 59.9225 199.929C58.3084 199.555 57.303 197.943 57.6769 196.329L62.8677 173.923Z" fill="#D9D9D9"/>
<path d="M35.8676 173.923C36.2416 172.308 37.8532 171.303 39.4673 171.677C41.0814 172.051 42.0868 173.663 41.7128 175.277L36.5221 197.683C36.1482 199.297 34.5365 200.303 32.9224 199.929C31.3083 199.555 30.303 197.943 30.6769 196.329L35.8676 173.923Z" fill="#D9D9D9"/>
<path d="M5.86769 173.923C6.24162 172.308 7.85324 171.303 9.46735 171.677C11.0815 172.051 12.0868 173.663 11.7129 175.277L6.52215 197.683C6.14822 199.297 4.5366 200.303 2.92249 199.929C1.30838 199.555 0.303016 197.943 0.676943 196.329L5.86769 173.923Z" fill="#D9D9D9"/>
<path d="M548.868 130.923C549.242 129.308 550.853 128.303 552.467 128.677C554.081 129.051 555.087 130.663 554.713 132.277L549.522 154.683C549.148 156.297 547.537 157.303 545.922 156.929C544.308 156.555 543.303 154.943 543.677 153.329L548.868 130.923Z" fill="#D9D9D9"/>
<path d="M518.868 130.923C519.242 129.308 520.853 128.303 522.467 128.677C524.081 129.051 525.087 130.663 524.713 132.277L519.522 154.683C519.148 156.297 517.537 157.303 515.922 156.929C514.308 156.555 513.303 154.943 513.677 153.329L518.868 130.923Z" fill="#D9D9D9"/>
<path d="M491.868 130.923C492.242 129.308 493.853 128.303 495.467 128.677C497.081 129.051 498.087 130.663 497.713 132.277L492.522 154.683C492.148 156.297 490.537 157.303 488.922 156.929C487.308 156.555 486.303 154.943 486.677 153.329L491.868 130.923Z" fill="#D9D9D9"/>
<path d="M461.868 130.923C462.242 129.308 463.853 128.303 465.467 128.677C467.081 129.051 468.087 130.663 467.713 132.277L462.522 154.683C462.148 156.297 460.537 157.303 458.922 156.929C457.308 156.555 456.303 154.943 456.677 153.329L461.868 130.923Z" fill="#D9D9D9"/>
<path d="M434.868 130.923C435.242 129.308 436.853 128.303 438.467 128.677C440.081 129.051 441.087 130.663 440.713 132.277L435.522 154.683C435.148 156.297 433.537 157.303 431.922 156.929C430.308 156.555 429.303 154.943 429.677 153.329L434.868 130.923Z" fill="#D9D9D9"/>
<path d="M404.868 130.923C405.242 129.308 406.853 128.303 408.467 128.677C410.081 129.051 411.087 130.663 410.713 132.277L405.522 154.683C405.148 156.297 403.537 157.303 401.922 156.929C400.308 156.555 399.303 154.943 399.677 153.329L404.868 130.923Z" fill="#D9D9D9"/>
<path d="M377.868 130.923C378.242 129.308 379.853 128.303 381.467 128.677C383.081 129.051 384.087 130.663 383.713 132.277L378.522 154.683C378.148 156.297 376.537 157.303 374.922 156.929C373.308 156.555 372.303 154.943 372.677 153.329L377.868 130.923Z" fill="#D9D9D9"/>
<path d="M347.868 130.923C348.242 129.308 349.853 128.303 351.467 128.677C353.081 129.051 354.087 130.663 353.713 132.277L348.522 154.683C348.148 156.297 346.537 157.303 344.922 156.929C343.308 156.555 342.303 154.943 342.677 153.329L347.868 130.923Z" fill="#D9D9D9"/>
<path d="M320.868 130.923C321.242 129.308 322.853 128.303 324.467 128.677C326.081 129.051 327.087 130.663 326.713 132.277L321.522 154.683C321.148 156.297 319.537 157.303 317.922 156.929C316.308 156.555 315.303 154.943 315.677 153.329L320.868 130.923Z" fill="#D9D9D9"/>
<path d="M290.868 130.923C291.242 129.308 292.853 128.303 294.467 128.677C296.081 129.051 297.087 130.663 296.713 132.277L291.522 154.683C291.148 156.297 289.537 157.303 287.922 156.929C286.308 156.555 285.303 154.943 285.677 153.329L290.868 130.923Z" fill="#D9D9D9"/>
<path d="M263.868 130.923C264.242 129.308 265.853 128.303 267.467 128.677C269.081 129.051 270.087 130.663 269.713 132.277L264.522 154.683C264.148 156.297 262.537 157.303 260.922 156.929C259.308 156.555 258.303 154.943 258.677 153.329L263.868 130.923Z" fill="#D9D9D9"/>
<path d="M233.868 130.923C234.242 129.308 235.853 128.303 237.467 128.677C239.081 129.051 240.087 130.663 239.713 132.277L234.522 154.683C234.148 156.297 232.537 157.303 230.922 156.929C229.308 156.555 228.303 154.943 228.677 153.329L233.868 130.923Z" fill="#D9D9D9"/>
<path d="M206.868 130.923C207.242 129.308 208.853 128.303 210.467 128.677C212.081 129.051 213.087 130.663 212.713 132.277L207.522 154.683C207.148 156.297 205.537 157.303 203.922 156.929C202.308 156.555 201.303 154.943 201.677 153.329L206.868 130.923Z" fill="#D9D9D9"/>
<path d="M176.868 130.923C177.242 129.308 178.853 128.303 180.467 128.677C182.081 129.051 183.087 130.663 182.713 132.277L177.522 154.683C177.148 156.297 175.537 157.303 173.922 156.929C172.308 156.555 171.303 154.943 171.677 153.329L176.868 130.923Z" fill="#D9D9D9"/>
<path d="M149.868 130.923C150.242 129.308 151.853 128.303 153.467 128.677C155.081 129.051 156.087 130.663 155.713 132.277L150.522 154.683C150.148 156.297 148.537 157.303 146.922 156.929C145.308 156.555 144.303 154.943 144.677 153.329L149.868 130.923Z" fill="#D9D9D9"/>
<path d="M119.868 130.923C120.242 129.308 121.853 128.303 123.467 128.677C125.081 129.051 126.087 130.663 125.713 132.277L120.522 154.683C120.148 156.297 118.537 157.303 116.922 156.929C115.308 156.555 114.303 154.943 114.677 153.329L119.868 130.923Z" fill="#D9D9D9"/>
<path d="M92.8676 130.923C93.2416 129.308 94.8532 128.303 96.4673 128.677C98.0814 129.051 99.0868 130.663 98.7128 132.277L93.5221 154.683C93.1482 156.297 91.5365 157.303 89.9224 156.929C88.3083 156.555 87.303 154.943 87.6769 153.329L92.8676 130.923Z" fill="#D9D9D9"/>
<path d="M62.8677 130.923C63.2416 129.308 64.8532 128.303 66.4673 128.677C68.0815 129.051 69.0868 130.663 68.7129 132.277L63.5221 154.683C63.1482 156.297 61.5366 157.303 59.9225 156.929C58.3084 156.555 57.303 154.943 57.6769 153.329L62.8677 130.923Z" fill="#D9D9D9"/>
<path d="M35.8676 130.923C36.2416 129.308 37.8532 128.303 39.4673 128.677C41.0814 129.051 42.0868 130.663 41.7128 132.277L36.5221 154.683C36.1482 156.297 34.5365 157.303 32.9224 156.929C31.3083 156.555 30.303 154.943 30.6769 153.329L35.8676 130.923Z" fill="#D9D9D9"/>
<path d="M5.86769 130.923C6.24162 129.308 7.85324 128.303 9.46735 128.677C11.0815 129.051 12.0868 130.663 11.7129 132.277L6.52215 154.683C6.14822 156.297 4.5366 157.303 2.92249 156.929C1.30838 156.555 0.303016 154.943 0.676943 153.329L5.86769 130.923Z" fill="#D9D9D9"/>
<path d="M548.868 88.9226C549.242 87.3085 550.853 86.3031 552.467 86.6771C554.081 87.051 555.087 88.6626 554.713 90.2767L549.522 112.683C549.148 114.297 547.537 115.303 545.922 114.929C544.308 114.555 543.303 112.943 543.677 111.329L548.868 88.9226Z" fill="#D9D9D9"/>
<path d="M518.868 88.9226C519.242 87.3085 520.853 86.3031 522.467 86.6771C524.081 87.051 525.087 88.6626 524.713 90.2767L519.522 112.683C519.148 114.297 517.537 115.303 515.922 114.929C514.308 114.555 513.303 112.943 513.677 111.329L518.868 88.9226Z" fill="#D9D9D9"/>
<path d="M491.868 88.9226C492.242 87.3085 493.853 86.3031 495.467 86.6771C497.081 87.051 498.087 88.6626 497.713 90.2767L492.522 112.683C492.148 114.297 490.537 115.303 488.922 114.929C487.308 114.555 486.303 112.943 486.677 111.329L491.868 88.9226Z" fill="#D9D9D9"/>
<path d="M461.868 88.9226C462.242 87.3085 463.853 86.3031 465.467 86.6771C467.081 87.051 468.087 88.6626 467.713 90.2767L462.522 112.683C462.148 114.297 460.537 115.303 458.922 114.929C457.308 114.555 456.303 112.943 456.677 111.329L461.868 88.9226Z" fill="#D9D9D9"/>
<path d="M434.868 88.9226C435.242 87.3085 436.853 86.3031 438.467 86.6771C440.081 87.051 441.087 88.6626 440.713 90.2767L435.522 112.683C435.148 114.297 433.537 115.303 431.922 114.929C430.308 114.555 429.303 112.943 429.677 111.329L434.868 88.9226Z" fill="#D9D9D9"/>
<path d="M404.868 88.9226C405.242 87.3085 406.853 86.3031 408.467 86.6771C410.081 87.051 411.087 88.6626 410.713 90.2767L405.522 112.683C405.148 114.297 403.537 115.303 401.922 114.929C400.308 114.555 399.303 112.943 399.677 111.329L404.868 88.9226Z" fill="#D9D9D9"/>
<path d="M377.868 88.9226C378.242 87.3085 379.853 86.3031 381.467 86.6771C383.081 87.051 384.087 88.6626 383.713 90.2767L378.522 112.683C378.148 114.297 376.537 115.303 374.922 114.929C373.308 114.555 372.303 112.943 372.677 111.329L377.868 88.9226Z" fill="#D9D9D9"/>
<path d="M347.868 88.9226C348.242 87.3085 349.853 86.3031 351.467 86.6771C353.081 87.051 354.087 88.6626 353.713 90.2767L348.522 112.683C348.148 114.297 346.537 115.303 344.922 114.929C343.308 114.555 342.303 112.943 342.677 111.329L347.868 88.9226Z" fill="#D9D9D9"/>
<path d="M320.868 88.9226C321.242 87.3085 322.853 86.3031 324.467 86.6771C326.081 87.051 327.087 88.6626 326.713 90.2767L321.522 112.683C321.148 114.297 319.537 115.303 317.922 114.929C316.308 114.555 315.303 112.943 315.677 111.329L320.868 88.9226Z" fill="#D9D9D9"/>
<path d="M290.868 88.9226C291.242 87.3085 292.853 86.3031 294.467 86.6771C296.081 87.051 297.087 88.6626 296.713 90.2767L291.522 112.683C291.148 114.297 289.537 115.303 287.922 114.929C286.308 114.555 285.303 112.943 285.677 111.329L290.868 88.9226Z" fill="#D9D9D9"/>
<path d="M263.868 88.9226C264.242 87.3085 265.853 86.3031 267.467 86.6771C269.081 87.051 270.087 88.6626 269.713 90.2767L264.522 112.683C264.148 114.297 262.537 115.303 260.922 114.929C259.308 114.555 258.303 112.943 258.677 111.329L263.868 88.9226Z" fill="#D9D9D9"/>
<path d="M233.868 88.9226C234.242 87.3085 235.853 86.3031 237.467 86.6771C239.081 87.051 240.087 88.6626 239.713 90.2767L234.522 112.683C234.148 114.297 232.537 115.303 230.922 114.929C229.308 114.555 228.303 112.943 228.677 111.329L233.868 88.9226Z" fill="#D9D9D9"/>
<path d="M206.868 88.9226C207.242 87.3085 208.853 86.3031 210.467 86.6771C212.081 87.051 213.087 88.6626 212.713 90.2767L207.522 112.683C207.148 114.297 205.537 115.303 203.922 114.929C202.308 114.555 201.303 112.943 201.677 111.329L206.868 88.9226Z" fill="#D9D9D9"/>
<path d="M176.868 88.9226C177.242 87.3085 178.853 86.3031 180.467 86.6771C182.081 87.051 183.087 88.6626 182.713 90.2767L177.522 112.683C177.148 114.297 175.537 115.303 173.922 114.929C172.308 114.555 171.303 112.943 171.677 111.329L176.868 88.9226Z" fill="#D9D9D9"/>
<path d="M149.868 88.9226C150.242 87.3085 151.853 86.3031 153.467 86.6771C155.081 87.051 156.087 88.6626 155.713 90.2767L150.522 112.683C150.148 114.297 148.537 115.303 146.922 114.929C145.308 114.555 144.303 112.943 144.677 111.329L149.868 88.9226Z" fill="#D9D9D9"/>
<path d="M119.868 88.9226C120.242 87.3085 121.853 86.3031 123.467 86.6771C125.081 87.051 126.087 88.6626 125.713 90.2767L120.522 112.683C120.148 114.297 118.537 115.303 116.922 114.929C115.308 114.555 114.303 112.943 114.677 111.329L119.868 88.9226Z" fill="#D9D9D9"/>
<path d="M92.8676 88.9226C93.2416 87.3085 94.8532 86.3031 96.4673 86.6771C98.0814 87.051 99.0868 88.6626 98.7128 90.2767L93.5221 112.683C93.1482 114.297 91.5365 115.303 89.9224 114.929C88.3083 114.555 87.303 112.943 87.6769 111.329L92.8676 88.9226Z" fill="#D9D9D9"/>
<path d="M62.8677 88.9226C63.2416 87.3085 64.8532 86.3031 66.4673 86.6771C68.0815 87.051 69.0868 88.6626 68.7129 90.2767L63.5221 112.683C63.1482 114.297 61.5366 115.303 59.9225 114.929C58.3084 114.555 57.303 112.943 57.6769 111.329L62.8677 88.9226Z" fill="#D9D9D9"/>
<path d="M35.8676 88.9226C36.2416 87.3085 37.8532 86.3031 39.4673 86.6771C41.0814 87.051 42.0868 88.6626 41.7128 90.2767L36.5221 112.683C36.1482 114.297 34.5365 115.303 32.9224 114.929C31.3083 114.555 30.303 112.943 30.6769 111.329L35.8676 88.9226Z" fill="#D9D9D9"/>
<path d="M5.86769 88.9226C6.24162 87.3085 7.85324 86.3031 9.46735 86.6771C11.0815 87.051 12.0868 88.6626 11.7129 90.2767L6.52215 112.683C6.14822 114.297 4.5366 115.303 2.92249 114.929C1.30838 114.555 0.303016 112.943 0.676943 111.329L5.86769 88.9226Z" fill="#D9D9D9"/>
<path d="M548.868 45.9226C549.242 44.3085 550.853 43.3031 552.467 43.6771C554.081 44.051 555.087 45.6626 554.713 47.2767L549.522 69.6833C549.148 71.2974 547.537 72.3028 545.922 71.9289C544.308 71.555 543.303 69.9433 543.677 68.3292L548.868 45.9226Z" fill="#D9D9D9"/>
<path d="M518.868 45.9226C519.242 44.3085 520.853 43.3031 522.467 43.6771C524.081 44.051 525.087 45.6626 524.713 47.2767L519.522 69.6833C519.148 71.2974 517.537 72.3028 515.922 71.9289C514.308 71.555 513.303 69.9433 513.677 68.3292L518.868 45.9226Z" fill="#D9D9D9"/>
<path d="M491.868 45.9226C492.242 44.3085 493.853 43.3031 495.467 43.6771C497.081 44.051 498.087 45.6626 497.713 47.2767L492.522 69.6833C492.148 71.2974 490.537 72.3028 488.922 71.9289C487.308 71.555 486.303 69.9433 486.677 68.3292L491.868 45.9226Z" fill="#D9D9D9"/>
<path d="M461.868 45.9226C462.242 44.3085 463.853 43.3031 465.467 43.6771C467.081 44.051 468.087 45.6626 467.713 47.2767L462.522 69.6833C462.148 71.2974 460.537 72.3028 458.922 71.9289C457.308 71.555 456.303 69.9433 456.677 68.3292L461.868 45.9226Z" fill="#D9D9D9"/>
<path d="M434.868 45.9226C435.242 44.3085 436.853 43.3031 438.467 43.6771C440.081 44.051 441.087 45.6626 440.713 47.2767L435.522 69.6833C435.148 71.2974 433.537 72.3028 431.922 71.9289C430.308 71.555 429.303 69.9433 429.677 68.3292L434.868 45.9226Z" fill="#D9D9D9"/>
<path d="M404.868 45.9226C405.242 44.3085 406.853 43.3031 408.467 43.6771C410.081 44.051 411.087 45.6626 410.713 47.2767L405.522 69.6833C405.148 71.2974 403.537 72.3028 401.922 71.9289C400.308 71.555 399.303 69.9433 399.677 68.3292L404.868 45.9226Z" fill="#D9D9D9"/>
<path d="M377.868 45.9226C378.242 44.3085 379.853 43.3031 381.467 43.6771C383.081 44.051 384.087 45.6626 383.713 47.2767L378.522 69.6833C378.148 71.2974 376.537 72.3028 374.922 71.9289C373.308 71.555 372.303 69.9433 372.677 68.3292L377.868 45.9226Z" fill="#D9D9D9"/>
<path d="M347.868 45.9226C348.242 44.3085 349.853 43.3031 351.467 43.6771C353.081 44.051 354.087 45.6626 353.713 47.2767L348.522 69.6833C348.148 71.2974 346.537 72.3028 344.922 71.9289C343.308 71.555 342.303 69.9433 342.677 68.3292L347.868 45.9226Z" fill="#D9D9D9"/>
<path d="M320.868 45.9226C321.242 44.3085 322.853 43.3031 324.467 43.6771C326.081 44.051 327.087 45.6626 326.713 47.2767L321.522 69.6833C321.148 71.2974 319.537 72.3028 317.922 71.9289C316.308 71.555 315.303 69.9433 315.677 68.3292L320.868 45.9226Z" fill="#D9D9D9"/>
<path d="M290.868 45.9226C291.242 44.3085 292.853 43.3031 294.467 43.6771C296.081 44.051 297.087 45.6626 296.713 47.2767L291.522 69.6833C291.148 71.2974 289.537 72.3028 287.922 71.9289C286.308 71.555 285.303 69.9433 285.677 68.3292L290.868 45.9226Z" fill="#D9D9D9"/>
<path d="M263.868 45.9226C264.242 44.3085 265.853 43.3031 267.467 43.6771C269.081 44.051 270.087 45.6626 269.713 47.2767L264.522 69.6833C264.148 71.2974 262.537 72.3028 260.922 71.9289C259.308 71.555 258.303 69.9433 258.677 68.3292L263.868 45.9226Z" fill="#D9D9D9"/>
<path d="M233.868 45.9226C234.242 44.3085 235.853 43.3031 237.467 43.6771C239.081 44.051 240.087 45.6626 239.713 47.2767L234.522 69.6833C234.148 71.2974 232.537 72.3028 230.922 71.9289C229.308 71.555 228.303 69.9433 228.677 68.3292L233.868 45.9226Z" fill="#D9D9D9"/>
<path d="M206.868 45.9226C207.242 44.3085 208.853 43.3031 210.467 43.6771C212.081 44.051 213.087 45.6626 212.713 47.2767L207.522 69.6833C207.148 71.2974 205.537 72.3028 203.922 71.9289C202.308 71.555 201.303 69.9433 201.677 68.3292L206.868 45.9226Z" fill="#D9D9D9"/>
<path d="M176.868 45.9226C177.242 44.3085 178.853 43.3031 180.467 43.6771C182.081 44.051 183.087 45.6626 182.713 47.2767L177.522 69.6833C177.148 71.2974 175.537 72.3028 173.922 71.9289C172.308 71.555 171.303 69.9433 171.677 68.3292L176.868 45.9226Z" fill="#D9D9D9"/>
<path d="M149.868 45.9226C150.242 44.3085 151.853 43.3031 153.467 43.6771C155.081 44.051 156.087 45.6626 155.713 47.2767L150.522 69.6833C150.148 71.2974 148.537 72.3028 146.922 71.9289C145.308 71.555 144.303 69.9433 144.677 68.3292L149.868 45.9226Z" fill="#D9D9D9"/>
<path d="M119.868 45.9226C120.242 44.3085 121.853 43.3031 123.467 43.6771C125.081 44.051 126.087 45.6626 125.713 47.2767L120.522 69.6833C120.148 71.2974 118.537 72.3028 116.922 71.9289C115.308 71.555 114.303 69.9433 114.677 68.3292L119.868 45.9226Z" fill="#D9D9D9"/>
<path d="M92.8676 45.9226C93.2416 44.3085 94.8532 43.3031 96.4673 43.6771C98.0814 44.051 99.0868 45.6626 98.7128 47.2767L93.5221 69.6833C93.1482 71.2974 91.5365 72.3028 89.9224 71.9289C88.3083 71.555 87.303 69.9433 87.6769 68.3292L92.8676 45.9226Z" fill="#D9D9D9"/>
<path d="M62.8677 45.9226C63.2416 44.3085 64.8532 43.3031 66.4673 43.6771C68.0815 44.051 69.0868 45.6626 68.7129 47.2767L63.5221 69.6833C63.1482 71.2974 61.5366 72.3028 59.9225 71.9289C58.3084 71.555 57.303 69.9433 57.6769 68.3292L62.8677 45.9226Z" fill="#D9D9D9"/>
<path d="M35.8676 45.9226C36.2416 44.3085 37.8532 43.3031 39.4673 43.6771C41.0814 44.051 42.0868 45.6626 41.7128 47.2767L36.5221 69.6833C36.1482 71.2974 34.5365 72.3028 32.9224 71.9289C31.3083 71.555 30.303 69.9433 30.6769 68.3292L35.8676 45.9226Z" fill="#D9D9D9"/>
<path d="M5.86769 45.9226C6.24162 44.3085 7.85324 43.3031 9.46735 43.6771C11.0815 44.051 12.0868 45.6626 11.7129 47.2767L6.52215 69.6833C6.14822 71.2974 4.5366 72.3028 2.92249 71.9289C1.30838 71.555 0.303016 69.9433 0.676943 68.3292L5.86769 45.9226Z" fill="#D9D9D9"/>
<path d="M548.868 2.92261C549.242 1.3085 550.853 0.303138 552.467 0.677065C554.081 1.05099 555.087 2.66261 554.713 4.27672L549.522 26.6833C549.148 28.2974 547.537 29.3028 545.922 28.9289C544.308 28.5549 543.303 26.9433 543.677 25.3292L548.868 2.92261Z" fill="#D9D9D9"/>
<path d="M518.868 2.92261C519.242 1.3085 520.853 0.303138 522.467 0.677065C524.081 1.05099 525.087 2.66261 524.713 4.27672L519.522 26.6833C519.148 28.2974 517.537 29.3028 515.922 28.9289C514.308 28.5549 513.303 26.9433 513.677 25.3292L518.868 2.92261Z" fill="#D9D9D9"/>
<path d="M491.868 2.92261C492.242 1.3085 493.853 0.303138 495.467 0.677065C497.081 1.05099 498.087 2.66261 497.713 4.27672L492.522 26.6833C492.148 28.2974 490.537 29.3028 488.922 28.9289C487.308 28.5549 486.303 26.9433 486.677 25.3292L491.868 2.92261Z" fill="#D9D9D9"/>
<path d="M461.868 2.92261C462.242 1.3085 463.853 0.303138 465.467 0.677065C467.081 1.05099 468.087 2.66261 467.713 4.27672L462.522 26.6833C462.148 28.2974 460.537 29.3028 458.922 28.9289C457.308 28.5549 456.303 26.9433 456.677 25.3292L461.868 2.92261Z" fill="#D9D9D9"/>
<path d="M434.868 2.92261C435.242 1.3085 436.853 0.303138 438.467 0.677065C440.081 1.05099 441.087 2.66261 440.713 4.27672L435.522 26.6833C435.148 28.2974 433.537 29.3028 431.922 28.9289C430.308 28.5549 429.303 26.9433 429.677 25.3292L434.868 2.92261Z" fill="#D9D9D9"/>
<path d="M404.868 2.92261C405.242 1.3085 406.853 0.303138 408.467 0.677065C410.081 1.05099 411.087 2.66261 410.713 4.27672L405.522 26.6833C405.148 28.2974 403.537 29.3028 401.922 28.9289C400.308 28.5549 399.303 26.9433 399.677 25.3292L404.868 2.92261Z" fill="#D9D9D9"/>
<path d="M377.868 2.92261C378.242 1.3085 379.853 0.303138 381.467 0.677065C383.081 1.05099 384.087 2.66261 383.713 4.27672L378.522 26.6833C378.148 28.2974 376.537 29.3028 374.922 28.9289C373.308 28.5549 372.303 26.9433 372.677 25.3292L377.868 2.92261Z" fill="#D9D9D9"/>
<path d="M347.868 2.92261C348.242 1.3085 349.853 0.303138 351.467 0.677065C353.081 1.05099 354.087 2.66261 353.713 4.27672L348.522 26.6833C348.148 28.2974 346.537 29.3028 344.922 28.9289C343.308 28.5549 342.303 26.9433 342.677 25.3292L347.868 2.92261Z" fill="#D9D9D9"/>
<path d="M320.868 2.92261C321.242 1.3085 322.853 0.303138 324.467 0.677065C326.081 1.05099 327.087 2.66261 326.713 4.27672L321.522 26.6833C321.148 28.2974 319.537 29.3028 317.922 28.9289C316.308 28.5549 315.303 26.9433 315.677 25.3292L320.868 2.92261Z" fill="#D9D9D9"/>
<path d="M290.868 2.92261C291.242 1.3085 292.853 0.303138 294.467 0.677065C296.081 1.05099 297.087 2.66261 296.713 4.27672L291.522 26.6833C291.148 28.2974 289.537 29.3028 287.922 28.9289C286.308 28.5549 285.303 26.9433 285.677 25.3292L290.868 2.92261Z" fill="#D9D9D9"/>
<path d="M263.868 2.92261C264.242 1.3085 265.853 0.303138 267.467 0.677065C269.081 1.05099 270.087 2.66261 269.713 4.27672L264.522 26.6833C264.148 28.2974 262.537 29.3028 260.922 28.9289C259.308 28.5549 258.303 26.9433 258.677 25.3292L263.868 2.92261Z" fill="#D9D9D9"/>
<path d="M233.868 2.92261C234.242 1.3085 235.853 0.303138 237.467 0.677065C239.081 1.05099 240.087 2.66261 239.713 4.27672L234.522 26.6833C234.148 28.2974 232.537 29.3028 230.922 28.9289C229.308 28.5549 228.303 26.9433 228.677 25.3292L233.868 2.92261Z" fill="#D9D9D9"/>
<path d="M206.868 2.92261C207.242 1.3085 208.853 0.303138 210.467 0.677065C212.081 1.05099 213.087 2.66261 212.713 4.27672L207.522 26.6833C207.148 28.2974 205.537 29.3028 203.922 28.9289C202.308 28.5549 201.303 26.9433 201.677 25.3292L206.868 2.92261Z" fill="#D9D9D9"/>
<path d="M176.868 2.92261C177.242 1.3085 178.853 0.303138 180.467 0.677065C182.081 1.05099 183.087 2.66261 182.713 4.27672L177.522 26.6833C177.148 28.2974 175.537 29.3028 173.922 28.9289C172.308 28.5549 171.303 26.9433 171.677 25.3292L176.868 2.92261Z" fill="#D9D9D9"/>
<path d="M149.868 2.92261C150.242 1.3085 151.853 0.303138 153.467 0.677065C155.081 1.05099 156.087 2.66261 155.713 4.27672L150.522 26.6833C150.148 28.2974 148.537 29.3028 146.922 28.9289C145.308 28.5549 144.303 26.9433 144.677 25.3292L149.868 2.92261Z" fill="#D9D9D9"/>
<path d="M119.868 2.92261C120.242 1.3085 121.853 0.303138 123.467 0.677065C125.081 1.05099 126.087 2.66261 125.713 4.27672L120.522 26.6833C120.148 28.2974 118.537 29.3028 116.922 28.9289C115.308 28.5549 114.303 26.9433 114.677 25.3292L119.868 2.92261Z" fill="#D9D9D9"/>
<path d="M92.8676 2.92261C93.2416 1.3085 94.8532 0.303138 96.4673 0.677065C98.0814 1.05099 99.0868 2.66261 98.7128 4.27672L93.5221 26.6833C93.1482 28.2974 91.5365 29.3028 89.9224 28.9289C88.3083 28.5549 87.303 26.9433 87.6769 25.3292L92.8676 2.92261Z" fill="#D9D9D9"/>
<path d="M62.8677 2.92261C63.2416 1.3085 64.8532 0.303138 66.4673 0.677065C68.0815 1.05099 69.0868 2.66261 68.7129 4.27672L63.5221 26.6833C63.1482 28.2974 61.5366 29.3028 59.9225 28.9289C58.3084 28.5549 57.303 26.9433 57.6769 25.3292L62.8677 2.92261Z" fill="#D9D9D9"/>
<path d="M35.8676 2.92261C36.2416 1.3085 37.8532 0.303138 39.4673 0.677065C41.0814 1.05099 42.0868 2.66261 41.7128 4.27672L36.5221 26.6833C36.1482 28.2974 34.5365 29.3028 32.9224 28.9289C31.3083 28.5549 30.303 26.9433 30.6769 25.3292L35.8676 2.92261Z" fill="#D9D9D9"/>
<path d="M5.86769 2.92261C6.24162 1.3085 7.85324 0.303138 9.46735 0.677065C11.0815 1.05099 12.0868 2.66261 11.7129 4.27672L6.52215 26.6833C6.14822 28.2974 4.5366 29.3028 2.92249 28.9289C1.30838 28.5549 0.303016 26.9433 0.676943 25.3292L5.86769 2.92261Z" fill="#D9D9D9"/>
</svg>
